<svg viewBox="0 0 252 215" xmlns="http://www.w3.org/2000/svg"><title>Welcome to Confluence</title><defs><linearGradient x1="6.07%" y1="93.013%" x2="93.93%" y2="-6.903%" id="a"><stop stop-color="#C1C7D0" offset="0%"/><stop stop-color="#FAFBFC" offset="100%"/></linearGradient><linearGradient x1="15.516%" y1="140.949%" x2="84.484%" y2="-40.897%" id="b"><stop stop-color="#FFF0B2" offset="0%"/><stop stop-color="#FFC400" offset="100%"/></linearGradient><linearGradient x1="-.45%" y1="51.034%" x2="99.78%" y2="51.021%" id="c"><stop stop-color="#EBECF0" stop-opacity=".1" offset="0%"/><stop stop-color="#EBECF0" offset="100%"/></linearGradient><linearGradient x1="177.638%" y1="10543%" x2="589.183%" y2="-3701%" id="d"><stop stop-color="#EBECF0" stop-opacity=".1" offset="0%"/><stop stop-color="#EBECF0" offset="100%"/></linearGradient></defs><g fill="none" fill-rule="evenodd"><path fill="url(#a)" fill-rule="nonzero" d="M0 184.62h92l29.78 29.78 29.77-29.78h92.26V0H0z"/><path fill="#FFC400" fill-rule="nonzero" d="M182.47 19.67h61.35v164.95h-61.35z"/><path fill="url(#b)" fill-rule="nonzero" style="mix-blend-mode:multiply" d="M196.8 63.17h47v19.17h-47z"/><path d="M27.86 168.36H156.9M27.86 177.95h82.5M27.86 27.19h114.95M27.86 36.78h82.5" stroke="#0065FF" stroke-width="2"/><path fill="#FAFBFC" fill-rule="nonzero" d="M26.93 52.17h129.96v95.22H26.93z"/><path fill="#EBECF0" fill-rule="nonzero" d="M0 0h243.81v19.67H0z"/><path d="M136.65 41.43h-9.18a3.71 3.71 0 0 0-3.73 3.7v9.18a3.71 3.71 0 0 0 3.7 3.73h1.45l3.11 4.3 3.16-4.3h1.45a3.71 3.71 0 0 0 3.73-3.7v-9.18a3.71 3.71 0 0 0-3.69-3.73z" fill="url(#c)" fill-rule="nonzero" style="mix-blend-mode:multiply"/><path d="M131 37.13a4.27 4.27 0 0 0-4.27 4.27V52a4.27 4.27 0 0 0 4.27 4.23h1.67l3.62 5 3.62-5h1.67a4.27 4.27 0 0 0 4.3-4.23V41.4a4.27 4.27 0 0 0-4.27-4.27H131z" fill="#FFC400" fill-rule="nonzero"/><circle fill="#344563" fill-rule="nonzero" cx="15.69" cy="9.76" r="5.11"/><circle fill="#A5ADBA" fill-rule="nonzero" cx="32.37" cy="9.76" r="5.11"/><circle fill="#0065FF" fill-rule="nonzero" cx="49.05" cy="9.76" r="5.11"/><path d="M243.81 36.75c-69.18-6-108.85.91-132.52 8.71-4.66 1.53-10.66 3.75-20.52 6.35C55.15 61.23 22.18 61.75 0 60.75V19.67h243.81v17.08z" fill="url(#d)" fill-rule="nonzero" style="mix-blend-mode:multiply"/><path fill="#F4F5F7" fill-rule="nonzero" d="M187.87 34.12h50.53v19.17h-50.53zM201.02 58.73h50.53V77.9h-50.53z"/><circle fill="#FFC400" fill-rule="nonzero" cx="195.9" cy="43.7" r="5.11"/><path fill="#F4F5F7" fill-rule="nonzero" d="M187.87 87.83h50.53V107h-50.53z"/><circle fill="#253858" fill-rule="nonzero" cx="195.9" cy="97.42" r="5.11"/><circle fill="#0065FF" fill-rule="nonzero" cx="209.46" cy="68.32" r="5.11"/><path fill="#0065FF" fill-rule="nonzero" d="M0 19.67h243.81v10.22H0z"/><path fill="#253858" fill-rule="nonzero" d="M142.32 128.55H65.95l38.19-43.19z"/><path fill="#0065FF" fill-rule="nonzero" d="M90.01 128.6h-48.5l24.25-26.89z"/><circle fill="#FFAB00" fill-rule="nonzero" cx="65.76" cy="85.36" r="5.9"/></g></svg>