<svg width="250" height="300" xmlns="http://www.w3.org/2000/svg" xmlns:xlink="http://www.w3.org/1999/xlink"><defs><linearGradient x1=".007%" y1="50.151%" x2="99.999%" y2="50.151%" id="a"><stop stop-color="#FAFBFC" offset="0%"/><stop stop-color="#F7F8FA" offset="3.213%"/><stop stop-color="#E9EBEE" offset="24.86%"/><stop stop-color="#E1E3E7" offset="51.78%"/><stop stop-color="#DFE1E5" offset="100%"/></linearGradient><linearGradient x1="-.006%" y1="50.168%" x2="99.987%" y2="50.168%" id="b"><stop stop-color="#FAFBFC" offset="0%"/><stop stop-color="#F7F8FA" offset="3.213%"/><stop stop-color="#E9EBEE" offset="24.86%"/><stop stop-color="#E1E3E7" offset="51.78%"/><stop stop-color="#DFE1E5" offset="100%"/></linearGradient><linearGradient x1="91.418%" y1="106.775%" x2="11.477%" y2="-6.221%" id="c"><stop stop-color="#FFC400" offset="0%"/><stop stop-color="#FFDB5F" offset="53.11%"/><stop stop-color="#FFF0B2" offset="100%"/></linearGradient><linearGradient x1="89.379%" y1="111.271%" x2="14.211%" y2="-10.885%" id="d"><stop stop-color="#FFC400" offset="0%"/><stop stop-color="#FFDB5F" offset="53.11%"/><stop stop-color="#FFF0B2" offset="100%"/></linearGradient><linearGradient x1="85.647%" y1="122.141%" x2="14.417%" y2="-22.019%" id="e"><stop stop-color="#FFC400" offset="0%"/><stop stop-color="#FFF0B2" offset="100%"/></linearGradient><linearGradient x1="-23.148%" y1="77.389%" x2="126.866%" y2="19.386%" id="f"><stop stop-color="#C1C7D0" offset="0%"/><stop stop-color="#F4F5F7" offset="100%"/></linearGradient><linearGradient x1="-17.39%" y1="78.534%" x2="120.992%" y2="17.583%" id="g"><stop stop-color="#C1C7D0" offset="0%"/><stop stop-color="#F4F5F7" offset="100%"/></linearGradient><linearGradient x1="-1.49%" y1="50.36%" x2="101.814%" y2="50.36%" id="h"><stop stop-color="#DE350B" offset="9.794%"/><stop stop-color="#E9613F" offset="18.83%"/><stop stop-color="#FFBDAD" offset="38.41%"/><stop stop-color="#FFBDAD" offset="65.44%"/><stop stop-color="#FFBDAD" offset="70.01%"/><stop stop-color="#FFBDAD" offset="74.61%"/><stop stop-color="#FF7452" offset="94.06%"/></linearGradient><linearGradient x1=".226%" y1="50.089%" x2="100.321%" y2="50.089%" id="i"><stop stop-color="#253858" offset="0%"/><stop stop-color="#42526E" offset="48.91%"/></linearGradient><linearGradient x1="10.94%" y1="110.691%" x2="72.05%" y2="-15.025%" id="j"><stop stop-color="#253858" offset="0%"/><stop stop-color="#505F79" offset="48.91%"/></linearGradient><path d="M27.623 38.373L.403 27.327l8.4-21.272C10.5 1.718 15.347-.327 19.628 1.39l19.546 7.936-11.55 29.046z" id="k"/><path d="M27.623 38.373L.403 27.327l8.4-21.272C10.5 1.718 15.347-.327 19.628 1.39l19.546 7.936-11.55 29.046z" id="m"/><linearGradient x1="49.659%" y1="100.354%" x2="49.659%" y2=".004%" id="o"><stop stop-color="#00875A" offset="0%"/><stop stop-color="#57D9A3" offset="100%"/></linearGradient><linearGradient x1="65.968%" y1="100.278%" x2="34.852%" y2="-.298%" id="p"><stop stop-color="#00875A" offset="0%"/><stop stop-color="#57D9A3" offset="100%"/></linearGradient><linearGradient x1="7.396%" y1="51.003%" x2="94.304%" y2="48.861%" id="q"><stop stop-color="#57D9A3" offset="0%"/><stop stop-color="#00875A" offset="100%"/></linearGradient><linearGradient x1="35.238%" y1="99.977%" x2="57.753%" y2="-.096%" id="r"><stop stop-color="#00875A" offset="0%"/><stop stop-color="#57D9A3" offset="100%"/></linearGradient><linearGradient x1="4.737%" y1="52.002%" x2="95.17%" y2="48.551%" id="s"><stop stop-color="#00875A" offset="0%"/><stop stop-color="#57D9A3" offset="100%"/></linearGradient><linearGradient x1="177.318%" y1="40.95%" x2="-54.731%" y2="58.312%" id="t"><stop stop-color="#00875A" offset="0%"/><stop stop-color="#57D9A3" offset="100%"/></linearGradient><linearGradient x1="-.273%" y1="49.616%" x2="99.723%" y2="49.616%" id="u"><stop stop-color="#00875A" offset="0%"/><stop stop-color="#57D9A3" offset="100%"/></linearGradient><path d="M30.266 31.652H.408V8.528C.408 3.854 4.16.082 8.81.082h21.455v31.57z" id="v"/><path d="M30.266 31.652H.408V8.528C.408 3.854 4.16.082 8.81.082h21.455v31.57z" id="x"/></defs><g transform="translate(1 28)" fill="none" fill-rule="evenodd"><ellipse fill="url(#a)" fill-rule="nonzero" cx="66" cy="199" rx="66" ry="9"/><ellipse fill="url(#b)" fill-rule="nonzero" cx="149" cy="234" rx="66" ry="9"/><path d="M154.979 164.098l38.79 1.141c4.727 1.55 7.987 5.87 8.231 10.844-.57 16.306-1.06 32.611-1.63 48.917H191c-.245-4.24-.815-7.99-1.549-11.251-1.711-7.582-3.83-10.436-5.052-16.876-.652-3.18-1.223-8.072-.57-14.35-3.83 2.039-8.965 4.322-15.484 5.626-12.143 2.446-22.33.326-27.79-1.304a223.501 223.501 0 0 0-4.155 4.484c-7.416-8.316-11.165-19.241-10.268-30.329l28.848 3.098z" fill="#344563" fill-rule="nonzero"/><path d="M157 176.813a68857.508 68857.508 0 0 1-4.388 41.732c-1.3 5.543-6.177 9.455-11.865 9.455H98v-7.988l22.511-5.135c2.438-.57 5.039-.815 7.558-.815h5.038c.976 0 1.707-.815 1.626-1.793l-2.276-22.578c-.162-1.223-.65-2.445-1.463-3.342a29.591 29.591 0 0 1-5.688-9.78c-2.357-6.848-1.544-12.798-.975-15.569 10.89 5.38 21.78 10.596 32.669 15.813z" fill="#42526E" fill-rule="nonzero"/><path d="M202.553 217.486c1.902 5.747 6.202 10.362 11.824 12.71l2.233.89c1.406.566 2.646 1.619 3.39 2.914l-18.935-.486-2.481-2.59-2.398 2.51h-6.036l-.662-1.782c-.827-2.104-1.24-4.29-1.323-6.557L188 217h1.902a7.116 7.116 0 0 1 6.119 3.481l.248.486c1.24-2.186 3.72-3.562 6.284-3.481zm-93.811 11.294c-5.937-.576-11.794 1.482-16.126 5.68l-1.685 1.647c-1.123 1.07-2.487 1.728-3.931 1.893l7.782-17.04 3.37-1.234-1.364-3.21L99.115 211l1.925.082c2.247.083 4.413.577 6.499 1.482l7.461 3.128-.722 1.729c-.963 2.305-3.129 3.951-5.536 4.198l-.481.082c1.283 1.976 1.524 4.692.481 7.08z" fill="#253858" fill-rule="nonzero"/><g fill-rule="nonzero"><path d="M207.841 111.194l-6.914.488a82.938 82.938 0 0 1-4.393 12.461c-2.44 5.457-5.287 9.936-7.727 13.357a63.716 63.716 0 0 1-7.24-2.362c-3.579-1.384-6.1-2.687-8.46-3.91-.244-.406-.65-.732-.976-.976 0 0-11.47-7.819-24.81-8.96-4.23-.406-7.808.49-7.808.49-1.22.244-2.278.651-3.335 1.058 0 3.828.813 9.285-.488 13.764-3.498 11.89-8.867 17.429-12.12 23.537 4.473 2.85 8.296 5.213 12.933 7.737 2.44 1.303 4.311 2.362 6.751 3.421 3.58 1.629 8.948 3.665 15.944 5.05 2.196-5.376 4.88-11.158 8.297-17.104.732-1.384 3.254-6.76 4.962-12.623 1.139.488 2.44.977 3.986 1.547 1.626.652 3.985 1.629 7.24 2.28 1.87.408 3.66.652 4.392.652 6.263.326 13.584-9.529 17-17.592 3.66-8.714 3.417-17.103 2.766-22.315z" fill="#42526E"/><path d="M206.62 112.415c.245-.733-.731-1.71-1.87-2.85-.732-.733-1.627-1.629-3.172-2.118-1.546-.488-1.627.082-3.173-.488-1.22-.489-1.708-1.059-2.765-.896-.57.081-1.302.407-1.302.814 0 .326.57.652.976.815.57.244 1.22.814 3.986 3.176 1.952 1.629 1.627 1.792 2.44 2.118 1.871.895 4.474.488 4.88-.57z" fill="#F1DAD5"/><path d="M49.213.896l.244 7.493-17.652.57c-.406 0-.732-.326-.813-.733l-.244-6.027c0-.407.325-.733.732-.814l17.733-.49z" fill="url(#c)" transform="translate(179.94 98)"/><path d="M30.83 2.443l.162 5.62-15.537.57c-.406 0-.813-.326-.813-.733l-.163-4.072c0-.407.325-.815.732-.815l15.618-.57z" fill="url(#d)" transform="translate(179.94 98)"/><path fill="url(#e)" d="M14.56 4.072l.082 3.502-13.096.489-.163-3.502z" transform="translate(179.94 98)"/><path d="M181.323 101.99l.163 4.643c0 .244-.163.489-.407.489h-.407c-.244 0-.488-.163-.488-.408l-.162-4.642c0-.244.162-.488.406-.488h.407c.244-.082.488.162.488.407zm49.945-3.176l.244 7.493a.73.73 0 0 1-.732.733h-.65a.73.73 0 0 1-.733-.733l-.244-7.493a.73.73 0 0 1 .732-.733h.65a.73.73 0 0 1 .733.733z" fill="#FFAB00"/><path d="M200.439 110.787c1.545 1.791 1.952 2.036 2.277 2.199.407.244 1.383.733 2.36.651 2.358-.244 4.23-3.828 3.985-6.76-.081-1.221-.488-2.117-1.139-3.502-.813-1.71-1.301-1.954-1.626-1.954-.489-.082-.895.325-1.14.57-.406-1.303-.813-1.71-1.22-1.792-.732-.163-1.789.652-1.789.652-.163-.163-1.057-1.304-1.708-1.06-.244.082-.326.327-.65 1.222-.652 1.792-.489 1.792-.733 2.036-.732.896-1.952.326-2.522 1.14-.325.49-.162 1.14-.081 1.548.244.977.732 1.303 2.034 2.77.976.977.732.814 1.952 2.28z" fill="#F1DAD5"/></g><path fill="url(#f)" fill-rule="nonzero" d="M17.488 62.261L.245 57.359 9.888 4.984l18.469 1.798z" transform="translate(95)"/><path fill="#EBECF0" fill-rule="nonzero" d="M133.49 60.3l-21.002 1.961 10.869-55.48L146.075.736z"/><path fill="url(#g)" fill-rule="nonzero" d="M60.882 66.51L38.49 60.3 51.075.735l24.19 2.043z" transform="translate(95)"/><path d="M113.877 5.801l-10.296 53.927m30.727-55.724l-11.686 57.44M157.68 1.88l-13.403 61.525M97.37 45.511l17.57 4.249 21.41-2.86 22.8 5.23m-59.083-21.163l17.896 3.35 21.82-3.922 23.29 4.085m-60.228-18.302l18.224 2.451 22.31-5.147 23.78 2.941" stroke="#C1C7D0" stroke-width="2.06"/><path d="M4.086 55.561c.654-1.47 4.903-10.867 12.748-13.482 1.226-.408 2.697-.735 4.495-.653 3.432 5.556 9.806 7.108 15.118 4.248 4.413-2.37 6.538-7.108 7.028-8.415 1.144-.49 4.495-2.125 7.192-5.883 1.88-2.697 2.533-5.148 2.778-6.455" stroke="url(#h)" stroke-width="2.06" transform="translate(95)"/><path d="M153.92 17.077c-.408 1.96-2.288 3.513-4.167 3.595-1.798.082-2.942-1.39-2.615-3.268.408-1.88 2.206-3.514 4.086-3.595 1.88-.164 3.105 1.307 2.696 3.268z" fill="#0065FF" fill-rule="nonzero"/><path d="M156 55v-4.714c0-.993.228-1.903.61-2.812.228-.331.532-.827.837-1.489.457-1.158.457-1.985.762-1.985.304 0 .609.827.609.91a3.56 3.56 0 0 1 .076 1.985c-.152.827-.229 1.985 0 3.639L156 55z" fill="#A27F68" fill-rule="nonzero"/><path d="M156.525 55.89c-.971-1.189-.486-3.646.567-5.31.404-.556 1.214-.952 2.266-2.3.324-.396.566-.792.728-1.03.243-1.11.567-2.22.81-3.25.728 1.427 1.133 2.616 1.457 3.488.404 1.03.323 1.585.566 3.012.081.476.081.555.081.713 0 .635-.324 1.19-.567 1.507-2.67 3.329-3.48 4.2-3.56 4.28h-.163s-1.538-.238-2.185-1.11z" fill="#A27F68" fill-rule="nonzero"/><path d="M93.939 32.744c.321 1.031-.723 1.825-.804 4.285-.08 1.666.402 3.015.804 3.967-6.509 2.46-12.053 2.698-13.419.476-.562-.952-.562-2.38-.482-4.285.08-2.063.16-3.808 1.045-4.999 2.651-3.65 12.052-2.221 12.856.556z" fill="#72594B" fill-rule="nonzero"/><path d="M72.327 82.115c.243-.73.647-1.543 1.051-2.436.566-1.055 1.132-1.948 1.698-2.679.566.081 1.537.325 2.75.406 1.05.081 1.86.162 2.264.162 2.506.163 7.277.325 20.457.406.566.65 1.375 1.543 2.184 2.68 2.992 4.222 3.8 8.2 4.043 9.905 5.175 28.58 5.417 39.379 5.417 39.379s.647 19.892.809 41.489c-.162.487-.566 1.218-1.294 1.949-1.698 1.705-3.962 1.623-4.528 1.623-2.183 0-3.72-1.055-4.286-1.461-2.587-4.628-3.962-8.85-4.851-11.854-1.617-5.846-1.698-10.555-1.698-12.341-.081-4.79.647-8.85 1.374-11.773-1.05-3.248-2.345-6.82-3.962-10.474-2.992-6.658-6.307-12.26-9.46-16.807-.567 10.96-1.214 22.084-1.86 33.289-.486 8.12-1.052 16.238-1.618 24.276-.485.406-2.425 1.868-5.175 1.624-2.102-.162-3.477-1.136-4.043-1.624-1.536-4.303-3.477-11.854-2.102-20.947.566-3.654 1.536-6.74 2.507-9.256a139.15 139.15 0 0 1-3.64-21.922s-1.374-16.401 1.214-26.063c.727-2.03 2.183-5.927 2.749-7.55z" fill="url(#i)" fill-rule="nonzero"/><path d="M113.767 170c-.905.723-2.962 2.007-6.172 2.57-2.386.4-4.36.24-5.595 0 .823 4.255 1.646 7.708 2.304 10.117 1.317 5.058 2.55 8.51 2.55 13.73 0 1.124-.081 2.088-.164 2.65l6.007.482c.33-.241.74-.563 1.07-.803.494.32.987.642 1.481.963l15.223 1.285c.987.08 1.728-.642 1.481-1.365l-5.924-2.088c-6.172-2.168-10.369-6.905-10.78-12.205-.247-3.533-.576-7.467-.905-10.358-.165-1.525-.412-3.292-.576-4.978zm-38.501-3.514c-1.893 0-3.703-.08-5.266-.243.494 4.135 1.07 7.46 1.563 9.73 1.07 5.513 1.646 8.595 1.564 13.216 0 1.622-.083 2.92-.165 3.811 1.81-.081 3.62-.162 5.513-.243.082-.162.329-.406.576-.649.164-.162.411-.243.493-.324.494.324.905.648 1.399 1.054 5.019-.081 10.038-.081 15.057-.162-.165-.649-.411-1.46-1.152-1.946-.576-.406-1.152-.325-2.14-.487a10.066 10.066 0 0 1-2.714-1.054c-2.469-2.757-6.418-8.108-7.817-15.81-.493-2.757-.576-5.27-.411-7.379-1.81.324-4.032.486-6.5.486z" fill="#172B4D" fill-rule="nonzero"/><path d="M70.237 51.62c-.98-4.144 1.144-8.45 5.147-9.994 0 0 .082 0 .082-.082 16.584-6.257 31.942.894 33.576 1.707 5.555 2.681 9.395 6.176 12.01 8.532 4.084 3.657 7.025 7.314 9.067 9.995a146.865 146.865 0 0 0 14.542-4.225 164.537 164.537 0 0 0 11.6-4.55 51.706 51.706 0 0 1 3.105 3.656c.572.731 1.144 1.463 1.634 2.194-3.186 2.357-5.882 4.144-7.761 5.282-14.623 9.426-20.914 10.483-25.162 10.239-1.47-.081-2.45-.244-2.614-.406a183.38 183.38 0 0 1-10.294-7.558c-3.921-3.006-8.904-7.313-8.986-5.363-.082 2.844-1.552 4.876-2.124 5.85-1.47 2.439-2.37 6.664.245 14.79-7.598 1.463-13.235 1.463-16.584 1.138-7.353-.65-8.987-1.219-15.195-2.438.326-2.844.572-6.094.49-9.832-.082-4.957-.735-8.695-1.389-12.108-.327-2.032-.735-4.307-1.389-6.826z" fill="url(#j)" fill-rule="nonzero"/><path d="M90.886 15c1.935 1.843 3.95 5.53 4.757 7.453.16.32.16.48.887.881.725.401 1.612.561 1.45 1.042-.16.481-1.209 1.202-1.29 1.603l.968 7.132-2.902 1.122L85 38c.161-.4 3.709-10.098 3.709-10.659 0-.56-.161-1.682.484-2.003.645-.32 1.693-5.93 2.015-6.732.323-.801.242-.961.08-2.003-.322-.882-.402-1.603-.402-1.603z" fill="#72594B" fill-rule="nonzero"/><path d="M74.658 33.39c1.117 1.147 3.51 3.766 7.181 3.603 3.99-.164 7.74-3.52 7.9-6.468.08-1.31-.639-2.21-.32-4.585.16-1.146.559-2.702 1.117-2.784.639-.082 1.038 1.556 1.437 1.474.399-.082.399-1.883.399-2.865 0-4.503.877-4.749.558-6.468-.718-3.357-4.309-5.24-4.787-5.404-4.469-2.21-9.097.328-9.895.737-5.505 3.03-8.059 10.07-7.021 15.801.16.9.798 4.176 3.43 6.96z" fill="#253858" fill-rule="nonzero"/><path d="M65.807 23.302c.82.898 2.707 2.777 5.496 2.695 3.117-.081 5.988-2.613 6.07-4.9.082-.98-.492-1.716-.246-3.431.082-.817.41-2.042.902-2.042.492 0 .82 1.143 1.149 1.143.328-.081.328-1.388.328-2.123 0-3.35.738-3.513.41-4.901-.574-2.532-3.363-3.92-3.691-4.084-3.445-1.634-7.055.245-7.629.572-4.265 2.287-6.234 7.514-5.413 11.843.164.735.574 3.186 2.624 5.228z" fill="#253858" fill-rule="nonzero"/><path d="M149 122.736c4.917 1.115 9.917 2.15 14.833 3.264a12.082 12.082 0 0 1-1-6.368c.25-2.945 1.5-5.015 2.167-6.05-4.5-1.194-9.083-2.388-13.583-3.582.25 1.433.416 3.662 0 6.209-.5 3.025-1.584 5.174-2.417 6.527z" fill="#EACBC6" fill-rule="nonzero"/><path d="M172.054 98c.97 3.236.89 8.545.647 11.2-.081.415.647 2.738 1.214 3.568.566.83-1.861.58-2.266.996l-2.347 6.305c-.485 1.327-1.78 2.074-3.156 1.908l-1.456-.166-7.04-2.157c-2.024-.58-3.157-2.82-2.428-4.895 1.618-4.812 3.641-6.471 5.26-6.969 1.133-.332 1.537 0 3.156-.58 2.832-.996 4.288-3.153 6.473-4.979.081-.083.405-.332.648-.663.404-.498.485-.996.647-1.494.081-.498.324-1.244.648-2.074z" fill="#F1DAD5" fill-rule="nonzero"/><path d="M171.891 98.87l-.403 1.484c-1.047 4.042-3.946 7.341-7.73 8.99l-.564-.247c-.805-.33-1.691-.412-2.497 0-1.288.578-1.932 1.98-1.69 3.3l.24 1.484a8.101 8.101 0 0 1-2.254 3.547c-.564.495-1.288.413-1.691.413-1.208 0-1.45 1.072-2.255 1.154-1.53.165-3.14-4.041-3.946-6.186-1.61-4.372-2.174-6.516-2.094-9.073.081-2.475 1.45-4.867 2.98-6.681.322-.413 1.772-2.227 4.59-3.877 2.738-1.65 6.765-4.124 11.113-2.804.644.164 4.43 1.237 5.718 4.784a5.904 5.904 0 0 1 .483 3.711z" fill="#172B4D" fill-rule="nonzero"/><path d="M152.046 155.373l-27.22-11.046 8.4-21.272c1.697-4.337 6.543-6.382 10.824-4.664l19.546 7.936-11.55 29.046z" fill="#B3BAC5" fill-rule="nonzero"/><g transform="translate(124.423 117)"><mask id="l" fill="#fff"><use xlink:href="#k"/></mask><path d="M24.877 16.773L8.723 10.227c-.727-.327-1.13-1.145-.808-1.882L13.327-5.4l18.82 7.69-5.412 13.746c-.243.655-1.131.982-1.858.737z" fill="#DFE1E5" fill-rule="nonzero" mask="url(#l)"/></g><g transform="translate(124.423 117)"><mask id="n" fill="#fff"><use xlink:href="#m"/></mask><path fill="#DFE1E5" fill-rule="nonzero" mask="url(#n)" transform="rotate(21.889 30.692 10.226)" d="M23.181 6.217h15.023v8.018H23.181z"/></g><path d="M152.046 155.373l-8.4-3.437 10.177-25.609a3.672 3.672 0 0 1 4.846-2.045l5.008 2.045-11.63 29.046z" fill="#EBECF0" fill-rule="nonzero"/><path d="M125.473 154.473l14.78 6.054c2.343.982 4.928-.163 5.897-2.536.97-2.373-.162-4.991-2.504-5.973l-14.78-6.054c-2.343-.982-4.928.163-5.897 2.536-.969 2.373.162 5.073 2.504 5.973z" fill="#C1C7D0" fill-rule="nonzero"/><path d="M141.95 161.182c-2.342-.982-3.473-3.6-2.504-5.973.97-2.373 3.554-3.518 5.896-2.536 2.343.982 3.473 3.6 2.504 5.972-.97 2.291-3.634 3.437-5.896 2.537z" fill="#FAFBFC" fill-rule="nonzero"/><g fill-rule="nonzero"><path fill="#5E6C84" d="M143.49 113.351l34.937-18.405-8.59-4.135-25.2 13.216z"/><path d="M169.755 90.892c-4.01-6-12.028-8.108-18.573-4.703-6.791 3.568-8.018 11.92-6.873 16.784.082.405.246.81.327 1.054" fill="#7A869A"/></g><path d="M169 221.06l1.154 1.07c.33.329.742.493 1.236.576h.165c.742.164 1.319.576 1.73 1.234a2.25 2.25 0 0 0 1.237 1.07c.412.165.742.411.989.74 0-.329-.165-.74-.247-1.07a2.96 2.96 0 0 1 0-2.633c.33-.658.412-1.399.247-2.057-.247-.905 0-1.81.494-2.551l.165-.165c.33-.493.577-1.07.577-1.646l.165-1.975 1.072 1.729c.33.493.741.905 1.318 1.152l.247.082c.825.411 1.402 1.152 1.649 2.057.165.576.494 1.07.906 1.482.083-.165.248-.33.33-.494.577-.659.824-1.481.907-2.304v-.083c0-1.152.577-2.222 1.483-2.88.742-.494 1.236-1.317 1.401-2.14v-.082c.248-1.07.99-2.057 1.978-2.551l.248-.165c.659-.329 1.236-.823 1.565-1.399l1.237-2.057.165 2.469c.082.74.33 1.399.741 1.975l.165.247c.66.905.907 2.057.66 3.127-.248.823-.083 1.728.33 2.551.411.905.494 1.893.246 2.798.495-.576 1.237-.905 1.978-.987h.248c.577-.083 1.154-.247 1.648-.659l1.566-1.234-.577 1.893a3.082 3.082 0 0 0 0 1.728l.082.247a3.07 3.07 0 0 1-.412 2.55c-.412.577-.577 1.317-.494 2.058a3.097 3.097 0 0 1-.907 2.469c-.494.494-.824 1.07-.906 1.81-.165.988-.66 1.81-1.566 2.222a3.271 3.271 0 0 0-1.319 1.482c-.33.905-1.071 1.48-1.978 1.81-.66.165-1.319.658-1.73 1.235a3.016 3.016 0 0 1-2.226 1.316h-.247c-.577.083-1.154.247-1.649.659l-1.4 1.07-1.155-.247c-.33-.494-.741-.906-1.318-1.153l-.247-.082a6.222 6.222 0 0 1-1.154-.905c0 .164-.083.33-.165.494l-.083.164c-.164.412-.247.905-.082 1.4l-.824.493c-.33-.33-.742-.494-1.236-.576h-.165c-.742-.165-1.319-.576-1.731-1.234a2.246 2.246 0 0 0-1.236-1.07 2.542 2.542 0 0 1-1.484-1.564 2.56 2.56 0 0 0-.989-1.317c-.66-.411-.989-1.152-1.071-1.892 0-.576-.247-1.07-.577-1.482-.495-.576-.66-1.316-.577-2.057.082-.576 0-1.152-.247-1.646-.33-.658-.412-1.399-.165-2.057l.082-.165c.165-.411.248-.905.083-1.399l-.33-1.481z" fill="url(#o)" fill-rule="nonzero"/><g fill-rule="nonzero"><path d="M22.694 49.075s-2.204-4.55-2.45-6.175a777.18 777.18 0 0 0-6.122-33.962C13.796 7.393 13.878.65 13.878.65s2.775 6.175 3.102 7.719a780.832 780.832 0 0 1 6.122 34.044c.327 1.625-.408 6.662-.408 6.662z" fill="url(#p)" transform="translate(42 148)"/><path d="M23.02 51.756c.082 0-2.53-4.387-3.02-5.85-3.102-11.131-7.755-22.018-13.796-32.5-.816-1.462-2.367-8.043-2.367-8.043.081 0 5.796 5.362 6.53 6.906 5.715 10.644 9.96 21.775 12.735 32.987.327 1.463-.082 6.5-.082 6.5z" fill="url(#q)" transform="translate(42 148)"/><path d="M23.02 52s-2.04-4.712-2.122-6.337c-.98-11.7-.816-23.4.49-35.02C21.55 9.02 23.918 2.6 24 2.682c0 0 .49 6.825.327 8.369a173.556 173.556 0 0 0-.49 34.45c.081 1.544-.898 6.5-.817 6.5z" fill="url(#r)" transform="translate(42 148)"/><path d="M21.796 21.775C18.286 14.544 14.122 7.394 9.224.569c-1.306.081-2.693.162-4 .325a148.052 148.052 0 0 1 13.796 22.1c.735 1.381 4.082 5.2 4.082 5.2s-.571-5.038-1.306-6.419z" fill="url(#s)" transform="translate(42 171.563)"/><path d="M46.898 182.125c-.653 1.463-4.49 7.313-4.408 7.394 0 0 .571-6.744 1.224-8.206 1.062-2.925 2.286-5.85 3.592-8.775 1.306-.163 2.694-.244 4-.326a118.446 118.446 0 0 0-4.408 9.913z" fill="#79F2C0"/><path d="M.082 25.675C.245 17.631 1.142 9.506 2.694 1.3A71.098 71.098 0 0 1 6.53 0C4.653 8.613 3.51 17.225 3.102 25.675c-.082 1.544-1.633 6.419-1.633 6.419.082-.081-1.387-4.875-1.387-6.419z" fill="url(#t)" transform="translate(63.224 167.5)"/><path d="M11.02 8.613c1.225 1.056 7.184 4.875 7.184 4.956 0 0-3.347-5.932-4.571-6.988-2.286-2.194-4.572-4.387-7.02-6.5-1.307.406-2.531.894-3.837 1.3 2.857 2.275 5.55 4.713 8.244 7.232z" fill="url(#u)" transform="translate(63.224 167.5)"/></g><path d="M92.266 72.652H62.408V49.528c0-4.674 3.753-8.446 8.403-8.446h21.455v31.57z" fill="#B3BAC5" fill-rule="nonzero"/><g transform="translate(62 41)"><mask id="w" fill="#fff"><use xlink:href="#v"/></mask><path d="M18.926 12.382H2.447c-1.142 0-2.12-.984-2.12-2.132V-4.018h20.639V10.25c.081 1.23-.898 2.132-2.04 2.132z" fill="#DFE1E5" fill-rule="nonzero" mask="url(#w)"/></g><g transform="translate(62 41)"><mask id="y" fill="#fff"><use xlink:href="#x"/></mask><path fill="#DFE1E5" fill-rule="nonzero" mask="url(#y)" d="M15.011 0h15.255v8.118H15.011z"/></g><path d="M92.266 72.652h-9.219v-26.24c0-2.952 2.366-5.412 5.385-5.412h3.834v31.652z" fill="#EBECF0" fill-rule="nonzero"/><path d="M66.813 81.918h17.703c1.713 0 3.1-1.394 3.1-3.116v-3.116a3.107 3.107 0 0 0-3.1-3.116H66.813c-2.529 0-4.568 2.05-4.568 4.592 0 2.706 2.04 4.756 4.568 4.756z" fill="#C1C7D0" fill-rule="nonzero"/><path d="M85.087 81.918c-2.53 0-4.569-2.05-4.569-4.592s2.04-4.592 4.569-4.592 4.568 2.05 4.568 4.592c.082 2.542-1.958 4.592-4.568 4.592z" fill="#FAFBFC" fill-rule="nonzero"/></g></svg>