<svg viewBox="0 0 24 24" xmlns="http://www.w3.org/2000/svg" xmlns:xlink="http://www.w3.org/1999/xlink"><title>blog</title><defs><path id="a" d="M0 0h9v12H0z"/></defs><g fill="none" fill-rule="evenodd"><path d="M4 2.991V21.01c0 1.098.893 1.99 1.993 1.99h12.014A2.001 2.001 0 0 0 20 21.008V7.497c0-.839-.528-2.11-1.123-2.706l-2.668-2.668C15.613 1.527 14.338 1 13.492 1H5.994A1.99 1.99 0 0 0 4 2.991zm-1 0A2.99 2.99 0 0 1 5.994 0h7.498c1.109 0 2.639.63 3.424 1.416l2.668 2.668C20.366 4.866 21 6.392 21 7.497v13.51A3.001 3.001 0 0 1 18.007 24H5.993A2.993 2.993 0 0 1 3 21.009V2.99z" fill="#333"/><path d="M16 6c-.714 0-1-.416-1-1V1l-1-1v5c0 1.157.753 2 2 2h5l-1-1h-4z" fill="#333"/><g transform="translate(8 6)"><circle fill="#333" cx="1" cy="11" r="1"/><mask id="b" fill="#fff"><use xlink:href="#a"/></mask><use xlink:href="#a"/><path d="M.621 15.627a4.418 4.418 0 1 0 0-8.837 4.418 4.418 0 0 0 0 8.837zm0-1a3.418 3.418 0 1 1 0-6.837 3.418 3.418 0 0 1 0 6.837zm0 3.873a7.292 7.292 0 1 0 0-14.584 7.292 7.292 0 0 0 0 14.584zm0-1a6.292 6.292 0 1 1 0-12.584 6.292 6.292 0 0 1 0 12.584z" fill="#333" mask="url(#b)"/></g></g></svg>