<svg viewBox="0 0 130 139" xmlns="http://www.w3.org/2000/svg"><title>illustration-saved-for-later@1x</title><g transform="translate(-.5 .5)" fill="none" fill-rule="evenodd"><ellipse opacity=".2" fill="#59AFE1" cx="55.5" cy="132" rx="30.5" ry="6"/><path d="M46.64 129.977c-3.288 0-6.96-2.43-7.405-9.26L37.076 87.62 8.587 70.635c-3.844-2.292-5.826-5.257-5.58-8.35.245-3.096 2.67-5.712 6.828-7.37l30.81-12.28 7.35-32.343c1.148-5.049 4.027-8.062 7.702-8.062 2.607 0 5.247 1.519 7.634 4.39l21.2 25.508 33.031-3.005c.553-.05 1.095-.075 1.615-.075 3.779 0 6.603 1.349 7.953 3.799 1.445 2.619.97 6.073-1.336 9.726L108.086 70.62l13.064 30.486c1.596 3.724 1.623 7.066.078 9.41-1.313 1.99-3.641 3.087-6.558 3.087-1.167 0-2.435-.172-3.769-.512l-32.144-8.175L53.8 126.76c-2.405 2.104-4.88 3.217-7.16 3.217" fill="#FFBD17"/><path d="M55.697 4.245c1.903 0 4.033 1.197 6.084 3.664L83.66 34.23l34.086-3.1c.497-.045.975-.066 1.43-.067 6.467 0 8.697 4.445 4.914 10.435l-18.273 28.94 13.482 31.46c2.5 5.838.427 9.687-4.629 9.687-.981 0-2.076-.145-3.271-.45l-33.171-8.434-25.754 22.543c-2.1 1.839-4.108 2.717-5.832 2.717-2.961 0-5.082-2.593-5.395-7.375l-2.228-34.154L9.62 68.904c-6.514-3.884-6.084-9.309.961-12.116l31.795-12.674L49.96 10.74c.97-4.268 3.142-6.495 5.737-6.495m0-4.031c-1.754 0-7.636.695-9.668 9.632l-7.115 31.309L9.09 53.043c-6.623 2.64-7.912 6.823-8.091 9.08-.18 2.26.434 6.593 6.558 10.244l27.578 16.442 2.09 32.039c.536 8.226 5.408 11.144 9.417 11.144 2.775 0 5.71-1.285 8.487-3.715l24.159-21.147 31.117 7.913c1.497.38 2.932.573 4.265.573 3.617 0 6.543-1.418 8.241-3.991 1.931-2.929 1.964-6.947.092-11.314L110.356 70.8l17.142-27.15c3.664-5.804 2.449-9.87 1.398-11.777-.997-1.808-3.585-4.841-9.72-4.841-.58 0-1.184.03-1.797.085l-31.975 2.907L64.881 5.332C61.365 1.102 57.947.214 55.697.214" fill="#1F5081"/><path d="M76.41 88.824c6.15-1.647 9.979-8.047 9.657-15.253-.097-2.187-1.995-3.833-3.777-3.355L62.014 75.65c-1.783.478-2.603 2.852-1.593 4.795 3.325 6.4 9.84 10.028 15.989 8.38M57.614 59.992a6.17 6.17 0 1 1-11.92 3.194 6.17 6.17 0 0 1 11.92-3.194M89.304 50.79a6.17 6.17 0 1 1-11.92 3.193 6.17 6.17 0 0 1 4.364-7.556 6.17 6.17 0 0 1 7.556 4.363" fill="#1F5081"/></g></svg>