<svg viewBox="0 0 119 120" xmlns="http://www.w3.org/2000/svg"><title>illustration-all-updates@1x</title><g fill="none" fill-rule="evenodd"><path d="M40.093 87.068a2 2 0 0 0-1.02 3.722c.149.088.299.176.45.263a1.996 1.996 0 0 0 2.507-.418 6.198 6.198 0 0 1 .459-1.68 1.998 1.998 0 0 0-.967-1.367l-.413-.241a1.989 1.989 0 0 0-1.016-.279m-8.315-6.322a2 2 0 0 0-1.386 3.441c.125.12.25.24.377.359.386.363.878.543 1.37.543a2 2 0 0 0 1.371-3.456 36.007 36.007 0 0 1-.345-.329 1.995 1.995 0 0 0-1.387-.558m-6.641-8.059a1.999 1.999 0 0 0-1.678 3.085c.093.145.188.291.283.435a2.002 2.002 0 0 0 2.772.565A2.001 2.001 0 0 0 27.079 74a27.215 27.215 0 0 1-.26-.398 2 2 0 0 0-1.682-.915m78.064-4.188a2 2 0 0 0-1.789 1.102l-.217.426a1.999 1.999 0 0 0 1.775 2.918 2 2 0 0 0 1.779-1.082c.08-.155.159-.309.237-.465a2 2 0 0 0-1.785-2.899m-80.517-2.98h-4.141a2 2 0 0 0 .104.462l.176.49a2.002 2.002 0 0 0 2.566 1.19 2 2 0 0 0 1.295-2.142m84.084-6.836a2 2 0 0 0-1.945 1.541l-.112.463a2 2 0 0 0 3.883.962l.122-.506a2 2 0 0 0-1.948-2.46m1.203-10.554h-.008a2 2 0 0 0-1.993 2.008l.001.174-.003.477a2 2 0 0 0 1.978 2.021h.022a2 2 0 0 0 2-1.978c.002-.173.003-.346.003-.52l-.001-.19a1.999 1.999 0 0 0-1.999-1.992m-1.242-10.368a1.998 1.998 0 0 0-1.946 2.467l.109.464a2 2 0 1 0 3.899-.891 46.43 46.43 0 0 0-.119-.507 2 2 0 0 0-1.943-1.533m-3.612-9.798a2.001 2.001 0 0 0-1.781 2.906l.212.425a2.002 2.002 0 0 0 3.587-1.772 66.94 66.94 0 0 0-.233-.464 2 2 0 0 0-1.785-1.095M32.373 15.314a1.99 1.99 0 0 0-1.36.534c-.127.118-.254.236-.379.355a2 2 0 0 0 2.752 2.903c.116-.109.231-.218.348-.326a2 2 0 0 0-1.361-3.466m57.352-3.191a1.998 1.998 0 0 0-1.191 3.607c.127.095.255.19.381.286a1.996 1.996 0 0 0 2.802-.386 2 2 0 0 0-.386-2.802 32.295 32.295 0 0 0-.417-.312 1.992 1.992 0 0 0-1.189-.393M40.794 9.144c-.334 0-.673.084-.985.261-.15.086-.301.172-.45.259a2 2 0 1 0 2.012 3.457c.137-.08.274-.159.412-.237a2 2 0 0 0-.989-3.74m39.871-2.222a2 2 0 0 0-.788 3.839c.147.063.293.126.438.191a2.002 2.002 0 0 0 2.638-1.023 2 2 0 0 0-1.023-2.637c-.159-.07-.318-.14-.479-.208a1.994 1.994 0 0 0-.786-.162M50.419 5.084c-.185 0-.372.026-.558.08-.167.048-.333.098-.5.148a2 2 0 0 0 1.157 3.829l.456-.135a2 2 0 0 0-.555-3.922m20.225-1.121a1.999 1.999 0 0 0-.336 3.971l.469.083a2.002 2.002 0 0 0 2.328-1.606 2 2 0 0 0-1.607-2.328c-.17-.032-.341-.062-.512-.091a1.99 1.99 0 0 0-.342-.029m-9.925-.597a1.67 1.67 0 0 0-.1.003c-.174.008-.347.018-.52.028a2.001 2.001 0 0 0 .241 3.993c.158-.01.317-.018.476-.026a2 2 0 0 0-.097-3.998" fill="#DEEFF9"/><path d="M85.201 106.375a6.278 6.278 0 0 1-6.271 6.271H60.836c-1.542 2.274-4.188 5.191-7.616 5.191a1.999 1.999 0 0 1-1.786-1.101c-.047.195-.096.394-.15.599a2.001 2.001 0 0 0 1.936 2.502c3.428 0 6.074-2.917 7.616-5.191H78.93a6.278 6.278 0 0 0 6.271-6.271v-2M41.98 93.428v14.947a6.278 6.278 0 0 0 6.27 6.271h3.205c.175-.74.304-1.409.4-2H48.25a6.278 6.278 0 0 1-6.27-6.271V93.428" fill="#D2DCE6"/><path d="M53.22 116.837a1 1 0 0 1-.968-1.251c.418-1.611.637-2.938.75-3.94H48.25a5.277 5.277 0 0 1-5.27-5.271V91.429a5.277 5.277 0 0 1 5.27-5.271h30.68a5.278 5.278 0 0 1 5.271 5.271v14.946a5.278 5.278 0 0 1-5.271 5.271H60.297c-1.364 2.134-3.877 5.191-7.077 5.191" fill="#F6F6F6"/><path d="M78.93 87.158a4.27 4.27 0 0 1 4.27 4.271v14.946a4.27 4.27 0 0 1-4.27 4.271H59.74c-1.047 1.742-3.5 5.191-6.52 5.191.617-2.377.812-4.166.871-5.191H48.25a4.27 4.27 0 0 1-4.27-4.271V91.429a4.27 4.27 0 0 1 4.27-4.271h30.68m0-2H48.25a6.278 6.278 0 0 0-6.27 6.271v14.946a6.278 6.278 0 0 0 6.27 6.271h3.605c-.125.77-.306 1.67-.571 2.689a2.001 2.001 0 0 0 1.936 2.502c3.428 0 6.074-2.917 7.616-5.191H78.93a6.278 6.278 0 0 0 6.271-6.271V91.429a6.278 6.278 0 0 0-6.271-6.271" fill="#1F5081"/><path d="M89.464 88.691a1.999 1.999 0 0 1-1.18-3.616l.382-.283a1.997 1.997 0 0 1 2.799.407 2 2 0 0 1-.406 2.799l-.418.309a1.994 1.994 0 0 1-1.177.384m7.667-7.087a2.001 2.001 0 0 1-1.517-3.303c.104-.12.206-.241.309-.363a1.995 1.995 0 0 1 1.532-.714 2 2 0 0 1 1.531 3.286c-.111.133-.223.265-.337.397a1.993 1.993 0 0 1-1.518.697m6.578-5.629H73.03a4.27 4.27 0 0 0-4.271 4.271v4.912H78.93a6.278 6.278 0 0 1 6.271 6.271v8.034h7.018c1.047 1.743 3.501 5.191 6.52 5.191-.617-2.377-.812-4.165-.871-5.191h5.841a4.27 4.27 0 0 0 4.271-4.27V80.246a4.27 4.27 0 0 0-4.271-4.271" fill="#D2DCE6"/><path d="M89.861 84.395c-.416 0-.836.129-1.195.397a53.86 53.86 0 0 1-.382.283 2 2 0 1 0 2.357 3.232l.418-.309a2 2 0 0 0-1.198-3.603m7.594-7.171c-.57 0-1.137.243-1.532.714-.103.122-.205.243-.309.363a2.001 2.001 0 0 0 1.517 3.303c.563 0 1.123-.236 1.518-.697.114-.132.226-.264.337-.397a2 2 0 0 0-1.531-3.286" fill="#B8CFE1"/><path d="M78.93 87.158H68.759v8.035a4.27 4.27 0 0 0 4.271 4.27H83.2v-8.034a4.27 4.27 0 0 0-4.27-4.271" fill="#CAD4DE"/><path d="M78.93 85.158H68.759v2H78.93a4.27 4.27 0 0 1 4.27 4.271v8.034h2.001v-8.034a6.278 6.278 0 0 0-6.271-6.271" fill="#1F5081"/><path d="M103.709 73.975H73.03a6.278 6.278 0 0 0-6.271 6.271v4.912h2v-4.912a4.27 4.27 0 0 1 4.271-4.271h30.679a4.27 4.27 0 0 1 4.271 4.271v14.947a4.27 4.27 0 0 1-4.271 4.27h-5.841c.059 1.026.254 2.814.871 5.191-3.019 0-5.473-3.448-6.52-5.191h-7.018v2h5.923c1.541 2.274 4.187 5.191 7.615 5.191a2 2 0 0 0 1.936-2.502 29.37 29.37 0 0 1-.57-2.689h3.604a6.278 6.278 0 0 0 6.271-6.27V80.246a6.278 6.278 0 0 0-6.271-6.271" fill="#D2DCE6"/><path d="M68.759 87.158h-2v8.035a6.278 6.278 0 0 0 6.271 6.27H83.2v-2H73.03a4.27 4.27 0 0 1-4.271-4.27v-8.035" fill="#CAD4DE"/><path d="M83.2 101.463h2v-2h-2v2zM66.759 87.158h2v-2h-2v2z" fill="#1F5081"/><path d="M98.739 103.654c-3.199 0-5.712-3.056-7.076-5.191H73.029a5.276 5.276 0 0 1-5.27-5.271V78.246a5.276 5.276 0 0 1 5.27-5.27h30.681a5.276 5.276 0 0 1 5.27 5.27v14.946a5.276 5.276 0 0 1-5.27 5.271h-4.753a28.72 28.72 0 0 0 .75 3.94 1 1 0 0 1-.968 1.251" fill="#F6F6F6"/><path d="M103.709 73.975a4.27 4.27 0 0 1 4.271 4.271v14.947a4.27 4.27 0 0 1-4.271 4.27h-5.841c.059 1.025.255 2.814.871 5.191-3.019 0-5.473-3.448-6.52-5.191h-19.19a4.27 4.27 0 0 1-4.27-4.27V78.246a4.27 4.27 0 0 1 4.27-4.271h30.68m0-2h-30.68a6.278 6.278 0 0 0-6.27 6.271v14.947a6.277 6.277 0 0 0 6.27 6.27h18.095c1.541 2.274 4.187 5.191 7.615 5.191a2.002 2.002 0 0 0 1.936-2.502 29.37 29.37 0 0 1-.57-2.689h3.604a6.278 6.278 0 0 0 6.271-6.27V78.246a6.278 6.278 0 0 0-6.271-6.271" fill="#1F5081"/><path d="M42.971 61.377a2.144 2.144 0 0 1-2.143 2.143H21.415c.453.222.822.615 1.003 1.128l.161.448c.052.14.086.281.105.423h18.144a2.143 2.143 0 0 0 2.143-2.142v-2m-42-34v36c0 1.183.959 2.142 2.143 2.142h15.429a2 2 0 0 1 1.107-1.999H3.114a2.143 2.143 0 0 1-2.143-2.143v-34" fill="#D2DCE6"/><path d="M21.415 63.52H19.65a2 2 0 0 0-1.107 1.999h4.141a1.954 1.954 0 0 0-.105-.423 80.272 80.272 0 0 1-.161-.448 1.989 1.989 0 0 0-1.003-1.128" fill="#B8CFE1"/><path d="M40.828 62.52H3.114a1.143 1.143 0 0 1-1.143-1.143v-36c0-.632.512-1.143 1.143-1.143h37.714c.631 0 1.143.511 1.143 1.143v36c0 .631-.512 1.143-1.143 1.143" fill="#FFBD17"/><path d="M40.828 62.52v-1H3.114l-.143-.143v-36l.143-.143h37.714l.143.143v36l-.143.143v2a2.144 2.144 0 0 0 2.143-2.143v-36a2.144 2.144 0 0 0-2.143-2.143H3.114a2.143 2.143 0 0 0-2.143 2.143v36c0 1.184.959 2.142 2.143 2.143h37.714v-1" fill="#1F5081"/><path d="M40.828 25.234H3.114l-.143.143v5.714h38v-5.714l-.143-.143" fill="#D2A72C"/><path d="M40.828 24.234H3.114c-.631 0-1.143.511-1.143 1.143v5.714h1v-5.714l.143-.143h37.714l.143.143v5.714h1v-5.714c0-.632-.512-1.143-1.143-1.143" fill="#1F5081"/><path d="M10.257 41.091h23.429v4H10.257v-4zM10.257 48.52h23.429v4H10.257v-4z" fill="#D2A72C"/><path d="M115.787 10.873l-7.009-7.009L80.042 32.6l7.008 7.009 28.737-28.736" fill="#45AFDE"/><path d="M115.787 10.873l.707-.707-7.009-7.009a.999.999 0 0 0-1.414 0L79.334 31.893a1 1 0 0 0 0 1.414l7.009 7.009c.189.189.44.293.707.293a.99.99 0 0 0 .707-.293l28.737-28.736c.186-.186.293-.444.293-.707 0-.264-.107-.521-.293-.707l-.707.707-.708-.707L87.05 38.195 81.456 32.6l27.322-27.322 6.301 6.302.708-.707-.708-.707.708.707" fill="#1F5081"/><path d="M77.939 41.712l2.103-9.112 7.008 7.009-9.111 2.103" fill="#E9E9E9"/><path d="M77.939 41.712l.974.224 1.697-7.353 4.458 4.457-7.354 1.697.225.975.974.224-.974-.224.225.974 9.111-2.102a.999.999 0 1 0 .482-1.682l-7.008-7.009a1 1 0 0 0-1.682.482l-2.102 9.112a1.002 1.002 0 0 0 1.199 1.199l-.225-.974" fill="#1F5081"/><path d="M115.787 10.873l-7.009-7.009-3.505 3.505 7.009 7.008 3.505-3.504" fill="#F6F6F6"/><path d="M115.787 10.873l.707-.707-7.009-7.009a.999.999 0 0 0-1.414 0l-3.505 3.505a1 1 0 0 0 0 1.414l7.009 7.008c.189.189.44.293.707.293a.993.993 0 0 0 .707-.293l3.505-3.504c.186-.186.293-.444.293-.707 0-.264-.107-.521-.293-.707l-.707.707-.708-.707-2.797 2.797-5.595-5.594 2.091-2.091 6.301 6.302.708-.707-.708-.707.708.707" fill="#1F5081"/><path d="M115.787 10.873l-7.009-7.009.701-.701a4.956 4.956 0 0 1 7.008 0h.001a4.957 4.957 0 0 1 0 7.009l-.701.701" fill="#FF4E4A"/><path d="M115.787 10.873l.707-.707-7.009-7.009-.707.707.707.707.701-.701a3.943 3.943 0 0 1 2.797-1.159 3.943 3.943 0 0 1 2.797 1.159c.186.187.444.293.707.293l.001-1-.708.707a3.939 3.939 0 0 1 1.159 2.798 3.937 3.937 0 0 1-1.159 2.797l-.701.701.708.707.707-.707-.707.707.707.707.701-.701a5.94 5.94 0 0 0 1.744-4.211 5.943 5.943 0 0 0-1.744-4.212 1.01 1.01 0 0 0-.707-.293l-.001 1 .708-.707a5.94 5.94 0 0 0-4.212-1.744 5.936 5.936 0 0 0-4.211 1.744l-.701.701a1.008 1.008 0 0 0-.293.707c0 .263.107.521.293.707l7.008 7.009c.189.189.44.293.708.293a.993.993 0 0 0 .707-.293l-.707-.707" fill="#1F5081"/><path d="M105.273 8.783L81.456 32.6l1.921 1.922 23.818-23.818-1.922-1.921" fill="#41A5D5"/><path d="M104.566 8.075L80.749 31.893l.707.707 23.817-23.817-.707-.707v-.001" fill="#1F5081"/><path d="M80.749 31.893l-.707.707 2.628 2.629.707-.707-2.628-2.629" fill="#1F5081"/><path d="M108.778 5.278l-2.091 2.091 1.922 1.921 2.09-2.09-1.921-1.922" fill="#DFE4E9"/><path d="M108.071 4.571l-3.505 3.504v.001l2.629 2.628 1.414-1.414-1.922-1.921 2.091-2.091 1.921 1.922v-.001l-2.628-2.628" fill="#1F5081"/><path d="M108.778 3.864l-.707.707 2.628 2.628.707-.707-2.628-2.628M81.011 42.029a1 1 0 0 0 .483-1.682l-2.191-2.19a1 1 0 0 0-1.681.482l-.657 2.848a1.002 1.002 0 0 0 1.199 1.199l2.847-.657z" fill="#1F5081"/></g></svg>