<svg viewBox="0 0 131 137" xmlns="http://www.w3.org/2000/svg"><title>illustration-documents@1x</title><g fill="none" fill-rule="evenodd"><path d="M57.984 50.69l-2.456-1.531-2.817.671-.645-2.704 3.382-.806a1.385 1.385 0 0 1 1.057.172l2.95 1.838-1.47 2.36M21.627 136.744a4.155 4.155 0 0 1-4.055-3.205l-.37-1.552 2.706-.644.37 1.552a1.4 1.4 0 0 0 1.674 1.03l.901-.215.645 2.705-.9.214a4.162 4.162 0 0 1-.971.115m7.905-1.766l-.645-2.705 6.705-1.598.645 2.705-6.705 1.598m12.739-3.036l-.645-2.704 6.704-1.598.645 2.705-6.704 1.597m12.738-3.035l-.645-2.705 6.704-1.597.645 2.704-6.704 1.598m-39.244-2.954l-1.598-6.705 2.705-.644 1.597 6.704-2.704.645m51.982-.082l-.645-2.705 6.704-1.597.645 2.705-6.704 1.597m13.003-3.2l-1.215-2.5a1.396 1.396 0 0 0 .742-1.574l-.726-3.046 2.704-.645.727 3.047c.076.32.115.646.115.97 0 1.584-.92 3.056-2.347 3.748m-68.021-9.456l-1.597-6.705 2.704-.644 1.598 6.704-2.705.645m65.384-3.698l-1.598-6.704 2.705-.645 1.598 6.704-2.705.645m-68.42-9.04l-1.597-6.705 2.705-.645 1.598 6.705-2.705.644m65.384-3.697l-1.598-6.705 2.705-.644 1.598 6.704-2.705.645m-68.42-9.041l-1.597-6.704 2.705-.644 1.598 6.703-2.705.645m65.384-3.697l-1.598-6.705 2.704-.645 1.598 6.705-2.704.645M3.623 75l-1.597-6.705 2.705-.644 1.597 6.704L3.623 75m65.384-3.698l-1.597-6.704 2.704-.645 1.597 6.705-2.704.644M3.622 62.278l-2.685-.722a4.17 4.17 0 0 1 3.061-2.977l3.797-.905.645 2.705-3.797.905c-.497.119-.888.5-1.02.994m10.85-3.336l-.644-2.705 6.704-1.598.645 2.705-6.705 1.598m51.498-.379l-.81-3.4-1.912-1.192 1.47-2.36 2.398 1.495c.31.193.533.501.617.857l.942 3.957-2.705.643m-38.76-2.657l-.644-2.705 6.703-1.597.646 2.705-6.705 1.597m12.739-3.035l-.645-2.705 6.703-1.597.645 2.705-6.703 1.597" fill="#1F5081"/><path d="M66.382 54.286l-8.55 2.038-2.062-8.652 10.612 6.614" fill="#3572B0"/><path d="M63.323 56.444l-.645-2.704.143-.035-.124-.077 1.47-2.36 2.95 1.838a1.392 1.392 0 0 1-.413 2.532l-3.38.806M57.83 57.713a1.394 1.394 0 0 1-1.351-1.068l-.805-3.381 2.705-.644.483 2.028 2.028-.483.645 2.705-3.382.806a1.405 1.405 0 0 1-.322.037M55.223 51.376l-.806-3.382a1.39 1.39 0 1 1 2.088-1.502l2.95 1.838-1.47 2.36-.078-.048.021.089-2.705.645" fill="#1F5081"/><path d="M26.809 113.21l38.763-9.236-38.763 9.237" fill="#FFF"/><path d="M65.249 102.62l-38.763 9.238.645 2.705 38.762-9.237-.322-1.352-38.762 9.237 38.763-9.237-.323-1.353" fill="#A6B9CD"/><path d="M65.572 103.974l-38.763 9.237 38.763-9.237h-.001" fill="#A6B9CD"/><path d="M28.574 120.621l38.763-9.237-38.763 9.237" fill="#FFF"/><path d="M67.015 110.032l-38.763 9.237.644 2.705 38.763-9.237-.322-1.353-38.763 9.237 38.763-9.237-.322-1.352M67.337 111.384l-38.763 9.237 38.763-9.237" fill="#A6B9CD"/><path d="M52.113 95.409" fill="#D2DCE6"/><path d="M51.73 82.417" fill="#8FA7C0"/><path d="M53.838 49.74l-3.309.797-4.51 15.595c1.825.667 3.53 1.63 5.04 2.849l.85-2.9-2.62-.765 1.933-6.615 2.628.768 1.747-5.953-2.636-.769.877-3.007M44.384 71.781l-.755 2.613c-.903 3.29 1.298 6.06 5.225 7.175l2.876.848a11.775 11.775 0 0 0-.887-4.238l-.017.058-.888-.26a4.191 4.191 0 0 1-3.002-4.003c0-.244.02-.487.064-.727a11.8 11.8 0 0 0-2.616-1.466M72.326 84.515l1.02 4.275.019.006-1.01-4.272-.029-.009M64.154 79.312l-.758 2.596-5.983-1.748c.193 1.338.229 2.667.12 3.968l15.812 4.662-1.019-4.275-2.975-.87.757-2.594-5.954-1.739m-7.452-2.176c.155.471.292.953.41 1.445l.033.146.394-1.346-.837-.245" fill="#E8EDF2"/><path d="M51.41 79.938" fill="#849EBA"/><path d="M57.532 84.128a17.582 17.582 0 0 1-2.549 7.738l-4.99-3.07a11.69 11.69 0 0 1 0 0l4.99 3.07a17.63 17.63 0 0 0 2.55-7.738M40.023 65.071c-1.35 0-2.72.156-4.09.483l1.359 5.7c-5.387 1.284-9.01 6.095-9.006 11.4-.005-5.305 3.62-10.116 9.006-11.4a11.677 11.677 0 0 1 7.092.527l1.633-5.65a17.491 17.491 0 0 0-5.994-1.06" fill="#E8EDF2"/><path d="M49.992 88.796a11.68 11.68 0 0 1-7.266 5.26l1.359 5.7a17.503 17.503 0 0 0 8.028-4.347 17.657 17.657 0 0 0 2.87-3.543l-4.99-3.07" fill="#C0CEDB"/><path d="M51.73 82.417a11.695 11.695 0 0 1-1.738 6.379l4.991 3.07a17.582 17.582 0 0 0 2.55-7.738l-5.803-1.711" fill="#849EB9"/><path d="M35.934 65.554c-8.08 1.925-13.515 9.142-13.508 17.1a17.68 17.68 0 0 0 .482 4.076l5.7-1.358a11.75 11.75 0 0 1-.321-2.718c-.005-5.305 3.62-10.116 9.006-11.4l-1.359-5.7" fill="#C0CEDB"/><path d="M28.609 85.372l-5.701 1.358c1.924 8.075 9.134 13.51 17.087 13.51 1.35 0 2.72-.157 4.09-.483l-1.359-5.7c-.913.217-1.827.321-2.726.321-5.302 0-10.108-3.623-11.391-9.006" fill="#849EB9"/><path d="M57.111 78.58l.034.147c-.01-.048-.023-.098-.034-.146m-5.528-2.935l-.74 2.533c.232.562.422 1.15.568 1.76l5.7-1.358a18.066 18.066 0 0 0-.41-1.445l-4.968-1.45-.15-.04m-1.806-2.078l-.004.016a1.385 1.385 0 0 0-.02.708 2.749 2.749 0 0 1 .024-.724m-3.759-7.436l-1.634 5.649A11.8 11.8 0 0 1 47 73.247c.026-.15.06-.297.103-.443l.448-1.533 2.612.762.896-3.052a17.702 17.702 0 0 0-5.04-2.85" fill="#D4DDE6"/><path d="M57.111 78.58l-5.7 1.358c.197.83.301 1.66.319 2.479l5.802 1.711c.11-1.302.074-2.63-.12-3.968l-.631-.184.364-1.249c-.01-.048-.023-.098-.034-.146" fill="#7A96B3"/><path d="M50 78c-1.764-.469-4-2.5-2.5-6.5L68.5 2c.5-.5 2.58-1.414 4-1l51 15 6.5 12-18.5 64c-.418 1.43-3 3-5 2.5L50 78z" fill="#FFF"/><path d="M123.238 20.838l-1.376-2.548-2.78-.811.78-2.67 3.336.975c.356.104.657.347.834.673l1.652 3.058-2.446 1.323M107.646 94.655a4.06 4.06 0 0 1-.275-.009l.185-2.774.09.003c.613 0 1.161-.412 1.333-1.001l.877-3.007 2.67.78-.877 3.006a4.192 4.192 0 0 1-4.003 3.002m-6.54-1.735l-6.616-1.932.78-2.67 6.615 1.933-.779 2.67m-12.57-3.672l-6.616-1.932.78-2.67 6.615 1.933-.78 2.669m-12.568-3.67l-6.616-1.933.779-2.669 6.615 1.932-.778 2.67m38.298-2.887l-2.67-.78 1.933-6.615 2.669.78-1.932 6.615m-50.869-.784l-6.615-1.932.78-2.67 6.615 1.932-.78 2.67m-12.57-3.671l-.888-.26a4.191 4.191 0 0 1-3.002-4.003c0-.395.056-.789.167-1.17l.448-1.533 2.67.78-.448 1.533a1.385 1.385 0 0 0 .945 1.724l.887.26-.779 2.669m67.11-8.115l-2.67-.779 1.932-6.616 2.67.78-1.933 6.615M51.96 66.096l-2.67-.78 1.933-6.615 2.67.78-1.933 6.615m69.647-8.544l-2.669-.78 1.932-6.615 2.67.78-1.933 6.615M55.63 53.526l-2.67-.779 1.932-6.616 2.67.78-1.932 6.615m69.647-8.543l-2.67-.78 1.933-6.615 2.669.779-1.932 6.616m-65.976-4.027l-2.67-.779 1.932-6.615 2.67.779-1.932 6.615m69.647-8.543l-2.67-.78.98-3.355-1.07-1.984 2.445-1.321 1.344 2.485c.173.322.213.7.11 1.051l-1.14 3.904m-65.976-4.026l-2.67-.78 1.932-6.616 2.67.78-1.932 6.616m3.67-12.57l-2.668-.78 1.932-6.615 2.67.779-1.934 6.615m46.465-.082l-6.614-1.932.779-2.67 6.615 1.932-.78 2.67m-12.57-3.671l-6.615-1.932.78-2.67 6.615 1.933-.78 2.669m-12.569-3.67L81.351 6.46l.78-2.67 6.615 1.932-.779 2.67m-12.57-3.671L71.65 3.628a1.398 1.398 0 0 0-1.38.357l-1.973-1.96A4.201 4.201 0 0 1 71.257.79h.003c.392 0 .785.057 1.168.167l3.749 1.095-.78 2.67" fill="#1F5081"/><path d="M128.753 28.12l-8.437-2.465 2.492-8.537 5.945 11.001" fill="#3572B0"/><path d="M128.753 29.51c-.13 0-.26-.019-.39-.056l-8.437-2.464a1.391 1.391 0 0 1-.945-1.725l2.493-8.537a1.39 1.39 0 0 1 2.558-.27l5.945 11a1.391 1.391 0 0 1-1.224 2.051" fill="#1F5081"/><path d="M65.193 59.716l38.252 11.17-38.252-11.17" fill="#FFF"/><path d="M103.445 70.886l-38.252-11.17 38.252 11.17M65.583 58.382l-.779 2.669 38.25 11.17.78-2.67-38.25-11.169" fill="#A6B9CD"/><path d="M65.193 59.716l38.252 11.17-38.252-11.17" fill="#A6B9CD"/><path d="M63.059 67.029l38.25 11.17-38.25-11.17" fill="#FFF"/><path d="M63.059 67.029l-.39 1.334 38.25 11.17.39-1.334-38.25-11.17m.39-1.335l-.39 1.335 38.25 11.17.39-1.335-38.25-11.17M63.059 67.029l38.25 11.17-38.25-11.17M100.394 62.517l2.812.822-2.812-.822" fill="#A6B9CD"/><g><path d="M85.21 52.01c-.05 0-.1-.007-.15-.022l-3.15-.92a.55.55 0 0 1-.33-.271.548.548 0 0 1-.03-.426c.653-1.888 1.896-3.594 3.811-5.225a.566.566 0 0 1 .36-.14c.044 0 .091.007.14.02.184.055.27.166.322.266.658 1.263 1.083 2.17 1.405 2.996a.762.762 0 0 1-.166.806c-.807.82-1.365 1.66-1.702 2.563a.546.546 0 0 1-.51.353m6.754-13.356a.568.568 0 0 1-.16-.024h-.002a.526.526 0 0 1-.321-.25c-.797-1.407-1.027-2.843-1.055-3.232a.5.5 0 0 1 .635-.543c.201.06.757.286 1.745.574l.007.002c.988.289 1.579.397 1.78.456a.502.502 0 0 1 .243.8c-.233.311-1.199 1.399-2.628 2.156a.516.516 0 0 1-.244.061m1.633 15.805a.531.531 0 0 1-.15-.022l-3.155-.92a.541.541 0 0 1-.378-.632c.654-3.065-1.127-6.392-3.013-9.915-1.023-1.912-2.082-3.89-2.752-5.886-.714-2.126-.903-4.01-.571-5.784a.542.542 0 0 1 .527-.436c.051 0 .102.008.151.023l.176.088a26.695 26.695 0 0 0 3.006 1.97c.197.11.322.318.338.528.151 2.294 1.51 4.825 2.933 7.486.06.104.144.236.329.29.048.013.093.02.135.02a.64.64 0 0 0 .298-.088c2.632-1.476 5.14-2.886 6.503-4.738a.678.678 0 0 1 .534-.264l.036.001c.51.028 1.045.045 1.595.045a24.611 24.611 0 0 0 2.036-.08.541.541 0 0 1 .501.742c-.675 1.674-1.845 3.151-3.59 4.558-1.64 1.323-3.596 2.42-5.488 3.48l-.41.231a.392.392 0 0 0-.17.488c.216.524.417 1.053.591 1.588.832 2.55 1 4.778.515 6.813a.542.542 0 0 1-.527.414m6.494-20.457a23.76 23.76 0 0 1-6.658-.953l-.002-.001a23.752 23.752 0 0 1-6.972-3.345 23.898 23.898 0 0 1-5.37-5.195.673.673 0 0 1 .553-1.068.665.665 0 0 1 .472.193c3.248 3.246 7.403 5.673 12.017 7.022a28.998 28.998 0 0 0 8.11 1.172c1.964 0 3.91-.208 5.798-.623a.634.634 0 0 1 .326.01.69.69 0 0 1 .45.42.672.672 0 0 1-.38.857 23.883 23.883 0 0 1-8.344 1.511m-20.52-17.246l2.812.82-1.15 3.938-3.937-1.15-9.199 31.5.821-2.811 3.938 1.15-1.15 3.937 28.688 8.377 1.15-3.938 3.938 1.15-.822 2.813 9.199-31.5-3.938-1.15 1.15-3.938 2.813.821-34.313-10.02" fill="#D2DCE6"/><path d="M81.642 23.44a.673.673 0 0 0-.552 1.068 23.898 23.898 0 0 0 5.37 5.195 23.752 23.752 0 0 0 6.971 3.345h.002a23.76 23.76 0 0 0 7.677.933c2.5-.107 4.963-.61 7.324-1.49a.672.672 0 0 0 .382-.858.69.69 0 0 0-.636-.445.634.634 0 0 0-.14.016 26.973 26.973 0 0 1-5.799.623c-2.702 0-5.438-.393-8.11-1.172-4.614-1.349-8.769-3.776-12.017-7.022a.65.65 0 0 0-.472-.193M84.105 30.864a.542.542 0 0 0-.527.435c-.332 1.775-.143 3.66.571 5.785.67 1.997 1.729 3.974 2.752 5.886 1.886 3.523 3.667 6.85 3.013 9.915a.541.541 0 0 0 .378.631l3.155.921a.531.531 0 0 0 .422-.051.542.542 0 0 0 .255-.341c.486-2.035.317-4.264-.515-6.813a21.948 21.948 0 0 0-.591-1.588.392.392 0 0 1 .17-.488l.41-.23c1.892-1.062 3.847-2.158 5.488-3.48 1.745-1.408 2.915-2.885 3.59-4.559a.541.541 0 0 0-.544-.74c-.674.055-1.344.078-1.993.078-.55 0-1.086-.017-1.595-.045h-.036a.678.678 0 0 0-.534.263c-1.362 1.852-3.871 3.262-6.503 4.738a.64.64 0 0 1-.298.088.486.486 0 0 1-.135-.02c-.185-.054-.27-.186-.33-.29-1.422-2.661-2.78-5.192-2.932-7.486a.678.678 0 0 0-.338-.529 26.695 26.695 0 0 1-3.006-1.97l-.176-.087a.533.533 0 0 0-.151-.023M85.72 45.007a.566.566 0 0 0-.359.139c-1.915 1.631-3.158 3.337-3.812 5.225a.548.548 0 0 0 .03.426.55.55 0 0 0 .33.272l3.15.92a.546.546 0 0 0 .66-.33c.338-.905.896-1.746 1.703-2.565.28-.283.23-.64.166-.806-.322-.827-.747-1.733-1.405-2.996a.502.502 0 0 0-.322-.265.511.511 0 0 0-.14-.02" fill="#8BA4BE"/><path d="M90.926 34.586a.5.5 0 0 0-.5.562c.028.39.258 1.825 1.055 3.232a.526.526 0 0 0 .32.25h.002a.516.516 0 0 0 .405-.038c1.429-.756 2.395-1.844 2.628-2.156a.502.502 0 0 0-.243-.8c-.201-.058-.792-.166-1.78-.455l-.007-.002c-.988-.288-1.544-.515-1.745-.574a.493.493 0 0 0-.135-.019M79.242 16.708c-.508 0-.976.333-1.125.844l-.821 2.812 3.937 1.15 1.15-3.937-2.812-.821a1.168 1.168 0 0 0-.33-.048M68.918 49.053l-.82 2.812a1.171 1.171 0 0 0 .796 1.454l2.812.82 1.15-3.937-3.938-1.15M111.07 25.954l-1.149 3.938 3.938 1.15.821-2.813a1.173 1.173 0 0 0-.797-1.454l-2.812-.82M101.544 58.58l-1.15 3.937 2.812.822a1.172 1.172 0 0 0 1.454-.797l.822-2.813-3.938-1.15" fill="#8BA4BE"/></g><path d="M122.04 24.71l3.907 1.141-2.753-5.094-1.154 3.953" fill="#C9D4DD"/></g></svg>