<svg viewBox="0 0 16 17" xmlns="http://www.w3.org/2000/svg"><title>aui-iconfont-space-person</title><g fill="none" fill-rule="evenodd"><path d="M12.952 3.923c-1.364-1.364-3.016-2.047-4.953-2.047-1.938 0-3.589.683-4.953 2.047C1.681 5.288.999 6.939.999 8.876c0 1.084.229 2.094.687 3.032a7.142 7.142 0 0 0 1.907 2.406c.75-1.709 1.698-2.948 2.843-3.719.084.021.219.068.407.141.187.073.328.13.422.172.093.041.213.078.359.109s.292.047.437.047c.126 0 .256-.026.391-.078.136-.052.313-.141.531-.266.219-.125.391-.219.516-.281 1.146.791 2.125 2.073 2.937 3.844a6.935 6.935 0 0 0 1.875-2.391 6.831 6.831 0 0 0 .688-3.016c0-1.937-.682-3.588-2.047-4.953" fill="#FFF"/><path d="M2.343 3.22C3.905 1.658 5.791.876 7.999.876c2.208 0 4.094.782 5.656 2.344 1.563 1.563 2.344 3.448 2.344 5.656 0 2.209-.781 4.094-2.344 5.657-1.562 1.562-3.448 2.343-5.656 2.343-2.208 0-4.094-.781-5.656-2.343C.78 12.97-.001 11.085-.001 8.876c0-2.208.781-4.093 2.344-5.656zm10.609.703c-1.364-1.364-3.016-2.047-4.953-2.047-1.938 0-3.589.683-4.953 2.047C1.681 5.288.999 6.939.999 8.876c0 1.084.229 2.094.687 3.032a7.142 7.142 0 0 0 1.907 2.406c.75-1.709 1.698-2.948 2.843-3.719.084.021.219.068.407.141.187.073.328.13.422.172.093.041.213.078.359.109s.292.047.437.047c.126 0 .256-.026.391-.078.136-.052.313-.141.531-.266.219-.125.391-.219.516-.281 1.146.791 2.125 2.073 2.937 3.844a6.935 6.935 0 0 0 1.875-2.391 6.831 6.831 0 0 0 .688-3.016c0-1.937-.682-3.588-2.047-4.953zm-7.047.828a2.878 2.878 0 0 1 2.11-.875c.823 0 1.531.297 2.125.891.593.594.89 1.302.89 2.125a2.85 2.85 0 0 1-.89 2.109 2.924 2.924 0 0 1-2.125.875 2.875 2.875 0 0 1-2.11-.875 2.893 2.893 0 0 1-.875-2.125c0-.833.292-1.541.875-2.125z" fill="#777"/></g></svg>