<svg viewBox="0 0 20 20" xmlns="http://www.w3.org/2000/svg"><title>icon-space@2x</title><path d="M6.308 1.251A9.32 9.32 0 0 1 10 .5c1.286 0 2.514.25 3.683.751a9.652 9.652 0 0 1 3.034 2.023 9.436 9.436 0 0 1 2.032 3.034A9.32 9.32 0 0 1 19.5 10a9.32 9.32 0 0 1-.751 3.692 9.436 9.436 0 0 1-2.032 3.034 9.652 9.652 0 0 1-3.034 2.023A9.253 9.253 0 0 1 10 19.5a9.32 9.32 0 0 1-3.692-.751 9.513 9.513 0 0 1-3.034-2.023 9.513 9.513 0 0 1-2.023-3.034A9.32 9.32 0 0 1 .5 10c0-1.286.25-2.517.751-3.692a9.513 9.513 0 0 1 2.023-3.034A9.513 9.513 0 0 1 6.308 1.25zm7.069.733a8.564 8.564 0 0 0-3.386-.686c-1.182 0-2.31.229-3.387.686A8.598 8.598 0 0 0 3.831 3.84a8.944 8.944 0 0 0-1.856 2.774A8.423 8.423 0 0 0 1.28 10c0 1.188.232 2.316.696 3.386a8.944 8.944 0 0 0 1.856 2.774 8.598 8.598 0 0 0 2.773 1.856 8.564 8.564 0 0 0 3.387.686c1.181 0 2.31-.229 3.386-.686a8.707 8.707 0 0 0 2.783-1.856 8.707 8.707 0 0 0 1.856-2.783A8.542 8.542 0 0 0 18.702 10c0-1.175-.229-2.3-.686-3.377A8.707 8.707 0 0 0 16.16 3.84a8.707 8.707 0 0 0-2.783-1.856zm1.763 7.033a.65.65 0 0 0-.037-.204h-2.728c-.334 0-.615-.115-.844-.344a1.148 1.148 0 0 1-.344-.844V4.879a1.25 1.25 0 0 0-.204-.019H2.968c.198-.284.414-.55.65-.798h7.365c.223 0 .464.056.724.167.26.112.47.242.63.39l3.044 3.043c.148.149.278.356.39.622.11.266.166.51.166.733v7.347c-.26.235-.525.458-.797.668V9.017zM11.967 5.38v2.04c0 .224.046.378.139.465.093.086.244.13.455.13h2.06L11.966 5.38zM7.03 8.813H1.372c.037-.273.087-.539.149-.798h5.51c.21 0 .449.055.715.167.266.111.473.24.621.39l3.043 3.042c.161.161.294.371.4.631.104.26.157.501.157.724v5.51c-.26.062-.52.112-.78.149v-5.66a.796.796 0 0 0-.037-.203H8.404c-.321 0-.6-.115-.835-.344a1.132 1.132 0 0 1-.352-.844V8.85a.61.61 0 0 0-.186-.037zm3.618 3.172L8.015 9.332v2.06c0 .21.043.361.13.454.086.093.24.14.463.14h2.041z" fill="#333" fill-rule="evenodd"/></svg>