<svg viewBox="0 0 14 17" xmlns="http://www.w3.org/2000/svg"><title>aui-iconfont-homepage</title><g fill="none" fill-rule="evenodd"><path d="M12.335 5.033h-4v-4h-5c-.541 0-1.01.198-1.406.593a1.923 1.923 0 0 0-.594 1.407v10c0 .541.198 1.01.594 1.406.396.396.865.594 1.406.594h7a1.92 1.92 0 0 0 1.406-.594c.396-.396.594-.865.594-1.406v-8" fill="#FFF"/><path d="M9.335 2.033v2h2l-2-2" fill="#FFF"/><path d="M3.335.033h5.5l4.5 4.5v8.5c0 .833-.292 1.541-.875 2.125a2.894 2.894 0 0 1-2.125.875h-7a2.894 2.894 0 0 1-2.125-.875 2.896 2.896 0 0 1-.875-2.125v-10c0-.834.292-1.542.875-2.125A2.89 2.89 0 0 1 3.335.033zm9 5h-4v-4h-5c-.541 0-1.01.198-1.406.593a1.923 1.923 0 0 0-.594 1.407v10c0 .541.198 1.01.594 1.406.396.396.865.594 1.406.594h7a1.92 1.92 0 0 0 1.406-.594c.396-.396.594-.865.594-1.406v-8zm-8 5l-1-.032v-.875l3.5-3 3.5 3v.875l-1 .032v2h-2v-2h-1v2h-2v-2zm5-8v2h2l-2-2z" fill="#777"/></g></svg>