<svg viewBox="0 0 140 102" xmlns="http://www.w3.org/2000/svg"><title>illustration-new-dashboard@0.5x</title><g fill="none" fill-rule="evenodd"><path d="M103.786 100.24H5.84c-2.353 0-4.26-1.901-4.26-4.247V30.177a4.253 4.253 0 0 1 4.26-4.247h97.946a4.253 4.253 0 0 1 4.259 4.247v65.816a4.252 4.252 0 0 1-4.259 4.247" fill="#D7DFE6"/><path d="M103.786 100.24v-1.062H5.84a3.183 3.183 0 0 1-2.26-.932 3.166 3.166 0 0 1-.935-2.253V30.177c0-.883.356-1.672.936-2.252a3.184 3.184 0 0 1 2.259-.933h97.946c.886 0 1.677.355 2.258.933.58.58.935 1.369.936 2.252v65.816c0 .883-.356 1.673-.936 2.253a3.183 3.183 0 0 1-2.258.932v2.123c2.94 0 5.322-2.375 5.323-5.308V30.177c0-2.932-2.383-5.307-5.323-5.308H5.84c-2.941 0-5.323 2.376-5.324 5.308v65.816c0 2.933 2.383 5.308 5.324 5.308h97.946v-1.061" fill="#1F5081"/><path d="M9.401 100.04H5.82a4.253 4.253 0 0 1-4.259-4.247V36.546h7.841" fill="#B1C0CF"/><path d="M9.401 98.978H5.82a3.184 3.184 0 0 1-2.259-.934 3.164 3.164 0 0 1-.935-2.251V37.607H9.4v-2.123H.496v60.309c0 2.931 2.382 5.307 5.323 5.308H9.4v-2.123" fill="#1F5081"/><path d="M108.045 36.546H1.58v-6.37a4.253 4.253 0 0 1 4.26-4.246h97.946a4.253 4.253 0 0 1 4.259 4.247v6.369" fill="#B1C0CE"/><path d="M108.045 36.546v-1.062H2.645v-5.307c0-.883.356-1.672.936-2.252a3.184 3.184 0 0 1 2.259-.933h97.946c.886 0 1.677.355 2.258.933.58.58.935 1.369.936 2.252v6.369h1.065v-1.062 1.062h1.064v-6.37c0-2.931-2.383-5.306-5.323-5.307H5.84c-2.941 0-5.323 2.376-5.324 5.308v7.43H109.11v-1.061h-1.064" fill="#1F5081"/><path d="M8.234 31.238a.797.797 0 1 1-.798-.796c.441 0 .798.357.798.796M11.162 31.238a.797.797 0 1 1-.798-.796c.441 0 .798.357.798.796M14.09 31.238c0 .44-.357.796-.799.796a.797.797 0 1 1 .799-.796" fill="#1F5081"/><path d="M17.692 73.435H27.1v2.123h-9.408v-2.123zM17.692 82.193H50.85v2.123H17.692v-2.123zM63.484 81.397h33.158v1.327H63.484v-1.327zM27.1 44.357H16.628v22.08H27.1v-2.123h-8.343V46.48H27.1v-2.123" fill="#B2C2D2"/><path d="M33.068 75.558H27.1v1.593a4.253 4.253 0 0 0 4.258 4.246h32.126v-.796h33.158v.796h10.338v-5.308H59.407v.861H36.661a5.316 5.316 0 0 1-3.593-1.392zm-1.73-9.12H27.1v6.997h4.55a5.278 5.278 0 0 1-.312-1.793h1.064-1.064v-5.205zM27.1 64.313h4.238V46.48H27.1v17.834zm0-19.957h4.238v-6.75H27.1v6.75z" fill="#BCCAD7"/><path d="M106.98 76.09h1.08v5.307h-1.08v-5.308z" fill="#1F5081"/><path d="M27.1 26.992h4.238v8.492H27.1v-8.492z" fill="#9BAFC3"/><path d="M27.1 37.607h4.238v-2.123H27.1v2.123zm0-10.615h4.238V25.93H27.1v1.062z" fill="#1F5081"/><path d="M31.65 73.435H27.1v2.123h5.968a5.32 5.32 0 0 1-1.418-2.123M63.484 80.6h33.158v.797H63.484v-.796zM27.1 66.437h4.238v-2.123H27.1v2.123zm0-19.957h4.238v-2.123H27.1v2.123z" fill="#9CB1C6"/><path d="M134.628 76.09H36.682a4.252 4.252 0 0 1-4.259-4.247V6.026a4.253 4.253 0 0 1 4.259-4.246h97.946a4.253 4.253 0 0 1 4.259 4.246v65.817a4.252 4.252 0 0 1-4.259 4.246" fill="#F6F6F6"/><path d="M134.628 76.09v-1.062H36.682a3.185 3.185 0 0 1-2.259-.933 3.166 3.166 0 0 1-.935-2.252V6.026c0-.883.355-1.672.935-2.252a3.185 3.185 0 0 1 2.259-.933h97.946c.886 0 1.678.355 2.259.933.58.58.935 1.37.935 2.252v65.817c0 .883-.356 1.672-.935 2.252a3.184 3.184 0 0 1-2.259.933v2.123c2.94 0 5.323-2.376 5.324-5.308V6.026c-.001-2.932-2.383-5.307-5.324-5.308H36.682c-2.94.001-5.323 2.376-5.324 5.308v65.817c0 2.932 2.383 5.307 5.324 5.308h97.946v-1.062" fill="#1F5081"/><path d="M32.402 71.642V12.395h25.94V75.89h-21.68a4.253 4.253 0 0 1-4.26-4.247" fill="#B1C0CF"/><path d="M32.402 71.642h1.065V13.457h23.811v61.37H36.661a3.184 3.184 0 0 1-2.258-.933 3.165 3.165 0 0 1-.936-2.252h-2.129c0 2.932 2.383 5.307 5.323 5.308h22.746V11.334H31.338v60.308h1.064" fill="#1F5081"/><path d="M37.6 20.357h15.546v-2.123H37.6v2.123zM37.6 26.063h15.546V23.94H37.6v2.123zM37.6 31.769h15.546v-2.123H37.6v2.123z" fill="#859EB7"/><path d="M138.887 12.395H32.423V6.026a4.253 4.253 0 0 1 4.259-4.246h97.946a4.253 4.253 0 0 1 4.259 4.246v6.37" fill="#3572B0"/><path d="M138.887 12.395v-1.061h-105.4V6.026c.001-.883.356-1.672.936-2.252a3.185 3.185 0 0 1 2.259-.933h97.946c.886 0 1.678.355 2.259.933.58.58.935 1.37.935 2.252v6.37h1.065v-1.062 1.061h1.065V6.026c-.001-2.932-2.383-5.307-5.324-5.308H36.682c-2.94.001-5.323 2.376-5.324 5.308v7.43h108.594v-1.06h-1.065" fill="#1F5081"/><path d="M39.077 7.088a.797.797 0 1 1-.798-.796c.44 0 .798.356.798.796" fill="#FF4E4A"/><path d="M42.005 7.088c0 .44-.358.796-.799.796a.797.797 0 1 1 .799-.796" fill="#FFBD17"/><path d="M44.933 7.088c0 .44-.358.796-.799.796a.797.797 0 1 1 .799-.796" fill="#4AC6C6"/><path d="M68.23 21.419h27.148v2.123H68.23v-2.123zM68.23 30.177h53.232V32.3H68.23v-2.123zM68.23 38.934h30.342v2.124H68.23v-2.124zM68.23 47.692h24.487v2.123H68.23v-2.123zM68.23 56.45h19.164v2.123H68.23V56.45z" fill="#CAD4DE"/><path d="M128.648 44.242a3.72 3.72 0 0 1-3.726 3.716 3.72 3.72 0 0 1-3.726-3.716 3.72 3.72 0 0 1 3.726-3.715 3.72 3.72 0 0 1 3.726 3.715" fill="#FFBD17"/><path d="M127.706 63.35H93.88c-.895 0-1.39-1.033-.829-1.727l11.192-13.838a1.067 1.067 0 0 1 1.555-.11l6.57 6.113c.343.32.856.378 1.262.142l4.926-2.866a1.067 1.067 0 0 1 1.354.238l8.615 10.307c.578.692.085 1.741-.818 1.741" fill="#4AC6C6"/></g></svg>