<svg viewBox="0 0 15 17" xmlns="http://www.w3.org/2000/svg"><title>aui-iconfont-comment</title><g fill="none" fill-rule="evenodd"><path d="M12.935 1.876c.546 0 .994.452.994 1.01v7.987c0 .56-.449 1.01-1.006 1.01h-2.494l-2.508 3.491-2.491-3.491H2.889a.978.978 0 0 1-.976-.986l.08-8.015a1.02 1.02 0 0 1 1.014-1.006h9.928zM.994 2.872l-.081 8.015a1.978 1.978 0 0 0 1.976 1.996H4.93l3 3.993 2.999-3.993h1.994c1.112 0 2.006-.9 2.006-2.01V2.886c0-1.107-.893-2.01-1.994-2.01H3.007A2.018 2.018 0 0 0 .994 2.872z" fill="#777"/><path d="M12.935 1.876c.546 0 .994.452.994 1.01v7.987c0 .56-.449 1.01-1.006 1.01h-2.494l-2.508 3.491-2.491-3.491H2.889a.978.978 0 0 1-.976-.986l.08-8.015a1.02 1.02 0 0 1 1.014-1.006h9.928" fill="#FFF"/></g></svg>