<svg viewBox="0 0 14 17" xmlns="http://www.w3.org/2000/svg"><title>aui-iconfont-page-blogpost</title><g fill="none" fill-rule="evenodd"><path d="M12.421 5.033h-4v-4h-5c-.542 0-1.011.198-1.406.593a1.923 1.923 0 0 0-.594 1.407v10c0 .541.198 1.01.594 1.406a1.92 1.92 0 0 0 1.406.594h7a1.92 1.92 0 0 0 1.406-.594c.396-.396.594-.865.594-1.406v-8" fill="#FFF"/><path d="M9.421 2.033v2h2l-2-2" fill="#FFF"/><path d="M3.421.033h5.5l4.5 4.5v8.5c0 .833-.292 1.541-.875 2.125a2.894 2.894 0 0 1-2.125.875h-7a2.894 2.894 0 0 1-2.125-.875 2.896 2.896 0 0 1-.875-2.125v-10c0-.834.292-1.542.875-2.125A2.89 2.89 0 0 1 3.421.033zm9 5h-4v-4h-5c-.542 0-1.011.198-1.406.593a1.923 1.923 0 0 0-.594 1.407v10c0 .541.198 1.01.594 1.406a1.92 1.92 0 0 0 1.406.594h7a1.92 1.92 0 0 0 1.406-.594c.396-.396.594-.865.594-1.406v-8zm-9 1.5c4.333 0 6.5 2.166 6.5 6.5H8.515c.145-1.75-.219-3.052-1.094-3.907-.875-.854-2.208-1.25-4-1.187V6.533zm0 3.812V9.033c1.167-.021 2.125.343 2.875 1.093s1.125 1.719 1.125 2.907H6.108c.084-.917-.119-1.61-.609-2.079-.49-.468-1.182-.671-2.078-.609zm.656 2.688c-.437 0-.656-.219-.656-.657 0-.437.219-.656.656-.656.438 0 .656.219.656.656 0 .438-.218.657-.656.657zm5.344-11v2h2l-2-2z" fill="#777"/></g></svg>