<svg id="Layer_1" xmlns="http://www.w3.org/2000/svg" viewBox="0 0 16 16"><style>.st0{fill:#ccc}.st1{fill:#707070}.st2{fill-rule:evenodd;clip-rule:evenodd;fill:none}.st3{fill:#fff}.st4{fill:#777}.st5{clip-path:url(#SVGID_14_)}.st6{clip-path:url(#SVGID_16_);fill:#707070}.st7{clip-path:url(#SVGID_18_);fill:#cce7f6}.st8{clip-path:url(#SVGID_20_);fill:#f5f5f5}.st10,.st9{fill:none;stroke:#185284;stroke-miterlimit:10}.st10{stroke-width:1}.st11{opacity:.5;enable-background:new}.st12{clip-path:url(#SVGID_22_)}.st13{clip-path:url(#SVGID_24_);fill:none;stroke:#185284;stroke-miterlimit:10}.st14{clip-path:url(#SVGID_26_)}.st15{clip-path:url(#SVGID_28_);fill:none;stroke:#185284;stroke-miterlimit:10}.st16{clip-path:url(#SVGID_30_)}.st17{clip-path:url(#SVGID_32_);fill:none;stroke:#185284;stroke-miterlimit:10}.st18{clip-path:url(#SVGID_34_)}.st19{clip-path:url(#SVGID_36_);fill:none;stroke:#185284;stroke-miterlimit:10}.st20{clip-path:url(#SVGID_38_);fill:#fff}.st21{fill:none;stroke:#f79232;stroke-width:1;stroke-miterlimit:10}.st22{clip-path:url(#SVGID_40_);fill:#e9e9e9}.st23{clip-path:url(#SVGID_42_);fill:#f79232}.st24,.st25{clip-path:url(#SVGID_44_);fill:#fff}.st25{clip-path:url(#SVGID_46_)}.st26{clip-path:url(#SVGID_48_);fill:#115386}.st27{clip-path:url(#SVGID_50_);fill:#fff}.st28,.st29,.st30{clip-path:url(#SVGID_52_);fill:#e9e9e9}.st29,.st30{clip-path:url(#SVGID_54_)}.st30{clip-path:url(#SVGID_56_)}.st31,.st32{fill:#fff;stroke:#231f20;stroke-linecap:round;stroke-linejoin:round;stroke-miterlimit:10}.st32{fill:none}.st33{fill:#231f20}.st34{fill:none;stroke:#707070;stroke-miterlimit:10}.st35{stroke-width:.75;stroke-linecap:round}.st35,.st36,.st37,.st38,.st39{fill:none;stroke:#707070;stroke-miterlimit:10}.st36{stroke-width:.75}.st37,.st38,.st39{stroke-linecap:round}.st38,.st39{stroke:#231f20;stroke-width:.75;stroke-linejoin:round}.st39{fill:#fff}</style><path class="st3" d="M13 3c-1.4-1.4-3-2-5-2s-3.6.7-5 2-2 3-2 5c0 1.1.2 2.1.7 3s1.1 1.7 1.9 2.4c.8-1.7 1.7-2.9 2.8-3.7.1 0 .2.1.4.1.2.1.4.2.5.2.1 0 .2.1.4.1h.4c.1 0 .3 0 .4-.1.1.1.3 0 .5-.2s.4-.2.5-.3c1.1.8 2.1 2.1 2.9 3.8.8-.6 1.4-1.4 1.9-2.4.5-.9.7-2 .7-3 0-1.8-.7-3.5-2-4.9z"/><path class="st4" d="M2.3 2.3C3.9.8 5.8 0 8 0s4.1.8 5.7 2.3S16 5.8 16 8s-.8 4.1-2.3 5.7S10.2 16 8 16s-4.1-.8-5.7-2.3S0 10.2 0 8s.8-4.1 2.3-5.7zM13 3c-1.4-1.4-3-2-5-2s-3.6.7-5 2-2 3-2 5c0 1.1.2 2.1.7 3s1.1 1.7 1.9 2.4c.8-1.7 1.7-2.9 2.8-3.7.1 0 .2.1.4.1.2.1.4.2.5.2.1 0 .2.1.4.1h.4c.1 0 .3 0 .4-.1.1.1.3 0 .5-.2s.4-.2.5-.3c1.1.8 2.1 2.1 2.9 3.8.8-.6 1.4-1.4 1.9-2.4.5-.9.7-2 .7-3 0-1.8-.7-3.5-2-4.9zm-7.1.9C6.5 3.3 7.2 3 8 3s1.5.3 2.1.9.9 1.3.9 2.1-.3 1.5-.9 2.1S8.8 9 8 9s-1.5-.3-2.1-.9S5 6.8 5 6s.3-1.5.9-2.1z"/></svg>