<svg viewBox="0 0 14 17" xmlns="http://www.w3.org/2000/svg"><title>aui-iconfont-page-default</title><g fill="none" fill-rule="evenodd"><path d="M12.499 5.033h-4v-4h-5c-.542 0-1.01.198-1.406.593a1.923 1.923 0 0 0-.594 1.407v10c0 .541.198 1.01.594 1.406a1.92 1.92 0 0 0 1.406.594h7a1.92 1.92 0 0 0 1.406-.594c.396-.396.594-.865.594-1.406v-8" fill="#FFF"/><path d="M3.499.033h5.5l4.5 4.5v8.5c0 .833-.292 1.541-.875 2.125a2.894 2.894 0 0 1-2.125.875h-7a2.894 2.894 0 0 1-2.125-.875 2.896 2.896 0 0 1-.875-2.125v-10c0-.834.292-1.542.875-2.125A2.89 2.89 0 0 1 3.499.033zm9 5h-4v-4h-5c-.542 0-1.01.198-1.406.593a1.923 1.923 0 0 0-.594 1.407v10c0 .541.198 1.01.594 1.406a1.92 1.92 0 0 0 1.406.594h7a1.92 1.92 0 0 0 1.406-.594c.396-.396.594-.865.594-1.406v-8zm-9 3h7v1h-7v-1zm0 2h7v1h-7v-1zm0 2h7v1h-7v-1zm6-10v2h2l-2-2z" fill="#777"/><path d="M9.499 2.033v2h2l-2-2" fill="#FFF"/></g></svg>