<svg viewBox="0 0 20 20" xmlns="http://www.w3.org/2000/svg"><title>Worked on</title><g fill="none" fill-rule="evenodd"><path d="M4.01 2A2.994 2.994 0 0 0 1 4.993v11.014C1 17.647 2.347 19 4.01 19h9.98c1.673 0 3.01-1.34 3.01-2.993V12h-1v4.007A1.994 1.994 0 0 1 13.99 18H4.01A2.01 2.01 0 0 1 2 16.007V4.993C2 3.889 2.892 3 4.01 3H11V2h1.995H4.01z" fill="#333"/><path d="M8 13.081l4-.991 7.29-7.23a.993.993 0 0 0-.001-1.409l-1.578-1.565a1.016 1.016 0 0 0-1.42 0L9 9.114 8 13.08z" stroke="#333"/><path d="M14.648 4.338l2 1.984.355.352.704-.71-.355-.352-2-1.984-.355-.352-.704.71.355.352z" fill="#333"/></g></svg>