<svg viewBox="0 0 24 24" xmlns="http://www.w3.org/2000/svg"><title>page</title><g fill="#333" fill-rule="evenodd"><path d="M4 2.991V21.01c0 1.098.893 1.99 1.993 1.99h12.014A2.001 2.001 0 0 0 20 21.008V7.497c0-.839-.528-2.11-1.123-2.706l-2.668-2.668C15.613 1.527 14.338 1 13.492 1H5.994A1.99 1.99 0 0 0 4 2.991zm-1 0A2.99 2.99 0 0 1 5.994 0h7.498c1.109 0 2.639.63 3.424 1.416l2.668 2.668C20.366 4.866 21 6.392 21 7.497v13.51A3.001 3.001 0 0 1 18.007 24H5.993A2.993 2.993 0 0 1 3 21.009V2.99z"/><path d="M16 6c-.714 0-1-.416-1-1V1l-1-1v5c0 1.157.753 2 2 2h5l-1-1h-4zM7.5 12H17v-1H7v1h.5zM7.5 15H17v-1H7v1h.5zM7.5 18H17v-1H7v1h.5z"/></g></svg>