<svg viewBox="0 0 20 20" xmlns="http://www.w3.org/2000/svg"><title>icon-star</title><path d="M12.144 7.568l.104.218.247.03 6.396.77-.237-.75-4.857 4.018-.205.17.061.251 1.433 5.927.668-.463-5.522-3.215L10 14.39l-.232.135-5.522 3.215.668.463 1.433-5.927.06-.252-.204-.169-4.857-4.018-.237.75 6.396-.77.247-.03.104-.218 2.551-5.358h-.814l2.551 5.358zM10 1l-.407.855-2.551 5.357.351-.247-6.395.77-.998.12.761.63 4.858 4.018-.144-.421-1.433 5.927-.24.991.909-.528 5.521-3.215h-.464l5.521 3.215.908.528-.24-.991-1.432-5.927-.144.42 4.858-4.017.761-.63-.998-.12-6.395-.77.351.247-2.551-5.357L10 1z" fill="#333" fill-rule="evenodd"/></svg>