<svg viewBox="0 0 15 17" xmlns="http://www.w3.org/2000/svg"><title>icon-answer</title><g fill="none" fill-rule="evenodd"><path d="M12.779 1.876c.546 0 .994.452.994 1.01v7.987c0 .56-.449 1.01-1.006 1.01h-2.494l-2.508 3.491-2.491-3.491H2.733a.978.978 0 0 1-.976-.986l.08-8.015a1.02 1.02 0 0 1 1.014-1.006h9.928" fill="#FFF"/><path d="M12.779 1.876c.546 0 .994.452.994 1.01v7.987c0 .56-.449 1.01-1.006 1.01h-2.494l-2.508 3.491-2.491-3.491H2.733a.978.978 0 0 1-.976-.986l.08-8.015a1.02 1.02 0 0 1 1.014-1.006h9.928zM.837 2.872l-.08 8.015a1.978 1.978 0 0 0 1.976 1.996h2.041l3 3.993 2.999-3.993h1.994c1.111 0 2.005-.9 2.005-2.01V2.886c0-1.107-.892-2.01-1.993-2.01H2.851A2.019 2.019 0 0 0 .837 2.872z" fill="#777"/><path d="M6.711 10.065L4.158 7.512l.935-.934 1.618 1.618 3.726-3.727.935.935-4.661 4.661" fill="#777"/></g></svg>