<svg viewBox="0 0 15 17" xmlns="http://www.w3.org/2000/svg"><title>icon-question</title><g fill="none" fill-rule="evenodd"><path d="M12.857 1.876c.546 0 .994.452.994 1.01v7.987c0 .56-.449 1.01-1.006 1.01h-2.494l-2.508 3.491-2.491-3.491H2.811a.978.978 0 0 1-.976-.986l.08-8.015a1.02 1.02 0 0 1 1.014-1.006h9.928zM.915 2.872l-.08 8.015a1.978 1.978 0 0 0 1.976 1.996h2.041l3 3.993 2.999-3.993h1.994c1.111 0 2.005-.9 2.005-2.01V2.886c0-1.107-.892-2.01-1.993-2.01H2.929A2.019 2.019 0 0 0 .915 2.872z" fill="#777"/><path d="M12.857 1.876c.546 0 .994.452.994 1.01v7.987c0 .56-.449 1.01-1.006 1.01h-2.494l-2.508 3.491-2.491-3.491H2.811a.978.978 0 0 1-.976-.986l.08-8.015a1.02 1.02 0 0 1 1.014-1.006h9.928" fill="#FFF"/><path d="M8.385 8.582H7.223a21.566 21.566 0 0 1-.004-.306c0-.376.062-.686.186-.929.125-.243.374-.516.748-.82.373-.304.596-.503.669-.597a.795.795 0 0 0 .169-.492c0-.249-.1-.463-.299-.64-.198-.178-.466-.267-.804-.267-.325 0-.597.093-.815.278-.219.185-.37.468-.452.848l-1.175-.146c.034-.544.265-1.005.695-1.385.43-.38.994-.57 1.693-.57.734 0 1.32.193 1.753.577.435.384.652.831.652 1.341 0 .283-.08.55-.239.802-.159.253-.501.596-1.023 1.03-.27.225-.438.406-.503.542-.065.137-.095.381-.089.734zm-1.182.959h1.28v1.28h-1.28v-1.28z" fill="#777"/></g></svg>